<svg id="Group_9759" data-name="Group 9759" xmlns="http://www.w3.org/2000/svg" width="101.708" height="32.159" viewBox="0 0 101.708 32.159">
  <g id="Group_9750" data-name="Group 9750">
    <g id="Group_9749" data-name="Group 9749">
      <g id="Group_9748" data-name="Group 9748">
        <g id="Group_9747" data-name="Group 9747">
          <g id="Group_9746" data-name="Group 9746">
            <path id="Path_1052" data-name="Path 1052" d="M61.138,54.231H-25.244c-.294,0-.586,0-.88,0-.246,0-.49.006-.739.01a10.468,10.468,0,0,0-1.611.142,5.336,5.336,0,0,0-1.528.5,5.182,5.182,0,0,0-1.3.947,5.05,5.05,0,0,0-.947,1.3,5.323,5.323,0,0,0-.5,1.531,10.5,10.5,0,0,0-.144,1.61c-.007.246-.008.494-.012.74V79.6c0,.249,0,.491.012.741a10.506,10.506,0,0,0,.144,1.61,5.315,5.315,0,0,0,.5,1.531,5,5,0,0,0,.947,1.3,5.05,5.05,0,0,0,1.3.948,5.393,5.393,0,0,0,1.528.507,10.775,10.775,0,0,0,1.611.142c.248.006.493.009.739.009.293,0,.585,0,.88,0H61.138c.289,0,.583,0,.872,0,.245,0,.5,0,.741-.009a10.64,10.64,0,0,0,1.608-.142,5.48,5.48,0,0,0,1.534-.507,5.028,5.028,0,0,0,1.3-.948,5.139,5.139,0,0,0,.95-1.3,5.305,5.305,0,0,0,.5-1.531,10.932,10.932,0,0,0,.15-1.61c0-.25,0-.492,0-.741.006-.293.006-.583.006-.88V61.9c0-.294,0-.586-.006-.877,0-.247,0-.494,0-.74a10.922,10.922,0,0,0-.15-1.61,5.313,5.313,0,0,0-.5-1.531,5.2,5.2,0,0,0-2.25-2.25,5.421,5.421,0,0,0-1.534-.5,10.339,10.339,0,0,0-1.608-.142c-.245,0-.5-.009-.741-.01-.289,0-.583,0-.872,0Z" transform="translate(32.909 -54.231)" fill="#b6b6b6"/>
            <path id="Path_1053" data-name="Path 1053" d="M-25.948,85.858c-.245,0-.484,0-.728-.009a10.037,10.037,0,0,1-1.5-.131,4.721,4.721,0,0,1-1.332-.441,4.347,4.347,0,0,1-1.123-.817,4.268,4.268,0,0,1-.82-1.123,4.584,4.584,0,0,1-.437-1.332,9.959,9.959,0,0,1-.133-1.507c-.006-.17-.012-.734-.012-.734V61.192s.007-.556.012-.72a9.929,9.929,0,0,1,.133-1.505,4.634,4.634,0,0,1,.437-1.336,4.312,4.312,0,0,1,.817-1.124,4.476,4.476,0,0,1,1.127-.822,4.7,4.7,0,0,1,1.329-.437,10.28,10.28,0,0,1,1.508-.132l.725-.01H62.177l.734.01a10.053,10.053,0,0,1,1.495.13,4.8,4.8,0,0,1,1.343.441,4.508,4.508,0,0,1,1.942,1.946,4.663,4.663,0,0,1,.43,1.326,10.53,10.53,0,0,1,.14,1.517c0,.228,0,.473,0,.716.006.3.006.588.006.877V78.9c0,.292,0,.577-.006.864,0,.261,0,.5,0,.748A10.321,10.321,0,0,1,68.122,82a4.632,4.632,0,0,1-.434,1.343,4.41,4.41,0,0,1-.817,1.114,4.363,4.363,0,0,1-1.125.822,4.721,4.721,0,0,1-1.341.441,9.932,9.932,0,0,1-1.5.131c-.235.006-.482.009-.721.009l-.872,0Z" transform="translate(32.738 -54.403)"/>
          </g>
        </g>
      </g>
    </g>
  </g>
  <g id="Group_9757" data-name="Group 9757" transform="translate(8.019 6.451)">
    <g id="Group_9754" data-name="Group 9754" transform="translate(0 0.56)">
      <g id="Group_9753" data-name="Group 9753">
        <g id="Group_9752" data-name="Group 9752">
          <g id="Group_9751" data-name="Group 9751">
            <path id="Path_1054" data-name="Path 1054" d="M-11.038,73.292a3.978,3.978,0,0,1,1.894-3.338,4.071,4.071,0,0,0-3.209-1.735c-1.35-.142-2.659.808-3.347.808s-1.761-.794-2.9-.77a4.272,4.272,0,0,0-3.6,2.193c-1.555,2.692-.4,6.648,1.094,8.824.745,1.065,1.616,2.256,2.756,2.213,1.115-.046,1.532-.711,2.877-.711s1.725.711,2.887.684c1.2-.019,1.95-1.071,2.669-2.146a8.8,8.8,0,0,0,1.221-2.487A3.844,3.844,0,0,1-11.038,73.292Z" transform="translate(22.935 -63.981)" fill="#fff"/>
            <path id="Path_1055" data-name="Path 1055" d="M-11.509,65.758a3.914,3.914,0,0,0,.9-2.807,3.987,3.987,0,0,0-2.578,1.335,3.725,3.725,0,0,0-.92,2.7A3.292,3.292,0,0,0-11.509,65.758Z" transform="translate(21.209 -62.951)" fill="#fff"/>
          </g>
        </g>
      </g>
    </g>
    <g id="Group_9756" data-name="Group 9756" transform="translate(19.137)">
      <g id="Group_9755" data-name="Group 9755" transform="translate(0)">
        <path id="Path_1056" data-name="Path 1056" d="M2.378,67.763v-4.12H.869v-.678h3.76v.678H3.123v4.12Z" transform="translate(-0.869 -62.394)" fill="#fff"/>
        <path id="Path_1057" data-name="Path 1057" d="M9.065,66.646A1.469,1.469,0,0,1,7.5,67.694a1.644,1.644,0,0,1-1.672-1.868,1.67,1.67,0,0,1,1.669-1.892c1.007,0,1.615.688,1.615,1.825v.249H6.552v.04a.958.958,0,0,0,.965,1.037.867.867,0,0,0,.861-.439ZM6.552,65.48H8.381a.874.874,0,0,0-.891-.938A.927.927,0,0,0,6.552,65.48ZM7.064,63.4,7.9,62.255h.838L7.8,63.4Z" transform="translate(-1.84 -62.255)" fill="#fff"/>
        <path id="Path_1058" data-name="Path 1058" d="M11.144,62.672h.714v5.034h-.714Z" transform="translate(-2.883 -62.337)" fill="#fff"/>
        <path id="Path_1059" data-name="Path 1059" d="M16.509,66.646a1.469,1.469,0,0,1-1.569,1.048,1.644,1.644,0,0,1-1.672-1.868,1.67,1.67,0,0,1,1.669-1.892c1.007,0,1.615.688,1.615,1.825v.249H14v.04a.957.957,0,0,0,.964,1.037.867.867,0,0,0,.861-.439ZM14,65.48h1.828a.873.873,0,0,0-.891-.938A.926.926,0,0,0,14,65.48Zm.512-2.081.835-1.143h.838L15.246,63.4Z" transform="translate(-3.3 -62.255)" fill="#fff"/>
        <path id="Path_1060" data-name="Path 1060" d="M20.872,65.6a.808.808,0,0,0-.855-.615c-.6,0-.965.458-.965,1.23s.369,1.253.965,1.253a.787.787,0,0,0,.855-.595h.695A1.416,1.416,0,0,1,20.022,68.1a1.89,1.89,0,0,1,0-3.76A1.428,1.428,0,0,1,21.567,65.6Z" transform="translate(-4.29 -62.664)" fill="#fff"/>
        <path id="Path_1061" data-name="Path 1061" d="M23.538,62.672h.708v2H24.3a1.115,1.115,0,0,1,1.1-.649,1.193,1.193,0,0,1,1.247,1.35v2.337h-.716V65.545c0-.578-.269-.872-.773-.872a.846.846,0,0,0-.912.918v2.114h-.715Z" transform="translate(-5.313 -62.337)" fill="#fff"/>
        <path id="Path_1062" data-name="Path 1062" d="M28.53,67.009c0-.651.486-1.027,1.347-1.081l.981-.056v-.313c0-.382-.253-.6-.741-.6-.4,0-.675.146-.755.4H28.67c.073-.622.658-1.021,1.479-1.021.908,0,1.419.452,1.419,1.216v2.474h-.687v-.509h-.056a1.218,1.218,0,0,1-1.088.568A1.094,1.094,0,0,1,28.53,67.009Zm2.328-.309v-.3l-.884.057c-.5.033-.724.2-.724.522s.282.515.671.515A.853.853,0,0,0,30.858,66.7Z" transform="translate(-6.291 -62.664)" fill="#fff"/>
        <path id="Path_1063" data-name="Path 1063" d="M33.7,64.415h.687v.555h.054a.98.98,0,0,1,.977-.615,1.5,1.5,0,0,1,.319.03v.705a1.957,1.957,0,0,0-.4-.043.848.848,0,0,0-.925.851v2.138H33.7Z" transform="translate(-7.305 -62.667)" fill="#fff"/>
        <path id="Path_1064" data-name="Path 1064" d="M37.017,68.4h.731c.061.262.363.432.845.432.595,0,.948-.282.948-.761v-.695h-.053a1.218,1.218,0,0,1-1.118.608c-.925,0-1.5-.714-1.5-1.8,0-1.1.577-1.829,1.5-1.829a1.254,1.254,0,0,1,1.137.638h.056v-.578h.685v3.65c0,.828-.649,1.353-1.672,1.353C37.679,69.418,37.094,69.013,37.017,68.4Zm2.537-2.218c0-.721-.373-1.183-.982-1.183s-.961.461-.961,1.183.346,1.183.961,1.183S39.555,66.905,39.555,66.18Z" transform="translate(-7.927 -62.667)" fill="#fff"/>
        <path id="Path_1065" data-name="Path 1065" d="M45.513,67.056A1.469,1.469,0,0,1,43.944,68.1a1.644,1.644,0,0,1-1.672-1.868,1.67,1.67,0,0,1,1.669-1.892c1.007,0,1.615.688,1.615,1.825v.249H43v.04a.958.958,0,0,0,.964,1.037.867.867,0,0,0,.862-.439ZM43,65.889h1.829a.875.875,0,0,0-.892-.938A.926.926,0,0,0,43,65.889Z" transform="translate(-8.985 -62.664)" fill="#fff"/>
        <path id="Path_1066" data-name="Path 1066" d="M47.55,64.415h.688v.555h.053a.982.982,0,0,1,.978-.615,1.489,1.489,0,0,1,.318.03v.705a1.95,1.95,0,0,0-.4-.043.848.848,0,0,0-.924.851v2.138H47.55Z" transform="translate(-10.02 -62.667)" fill="#fff"/>
        <path id="Path_1067" data-name="Path 1067" d="M53.287,65.894c0-1.143.588-1.868,1.5-1.868a1.2,1.2,0,0,1,1.11.635h.053V62.672h.715v5.034h-.685v-.572h-.056a1.256,1.256,0,0,1-1.137.632C53.868,67.765,53.287,67.041,53.287,65.894Zm.738,0c0,.769.362,1.23.967,1.23s.974-.469.974-1.227-.376-1.229-.974-1.229S54.025,65.132,54.025,65.894Z" transform="translate(-11.144 -62.337)" fill="#fff"/>
        <path id="Path_1068" data-name="Path 1068" d="M58.693,67.009c0-.651.485-1.027,1.347-1.081l.98-.056v-.313c0-.382-.252-.6-.74-.6-.4,0-.675.146-.755.4h-.691c.073-.622.658-1.021,1.479-1.021.907,0,1.419.452,1.419,1.216v2.474h-.687v-.509h-.057a1.216,1.216,0,0,1-1.087.568A1.094,1.094,0,0,1,58.693,67.009ZM61.02,66.7v-.3l-.884.057c-.5.033-.725.2-.725.522s.283.515.671.515A.853.853,0,0,0,61.02,66.7Z" transform="translate(-12.204 -62.664)" fill="#fff"/>
        <path id="Path_1069" data-name="Path 1069" d="M63.864,64.413h.687v.575h.054a1.083,1.083,0,0,1,1.08-.645,1.178,1.178,0,0,1,1.253,1.347v2.344h-.715V65.869c0-.582-.252-.872-.781-.872a.831.831,0,0,0-.865.918v2.118h-.714Z" transform="translate(-13.218 -62.664)" fill="#fff"/>
        <path id="Path_1070" data-name="Path 1070" d="M70.342,64.343c.814,0,1.347.379,1.417,1.017h-.685c-.066-.265-.326-.435-.732-.435s-.7.189-.7.472c0,.216.183.352.576.442l.6.139c.689.16,1.011.456,1.011.988,0,.681-.635,1.137-1.5,1.137s-1.423-.389-1.487-1.031h.716a.734.734,0,0,0,.787.452c.445,0,.762-.2.762-.489,0-.215-.17-.355-.532-.442l-.632-.146c-.688-.162-1.007-.472-1.007-1.011C68.936,64.795,69.525,64.343,70.342,64.343Z" transform="translate(-14.194 -62.664)" fill="#fff"/>
      </g>
    </g>
  </g>
  <g id="Group_9758" data-name="Group 9758" transform="translate(28.298 14.359)">
    <path id="Path_1071" data-name="Path 1071" d="M2.289,72.3H3.784v9.985H2.289Z" transform="translate(-2.289 -72.132)" fill="#fff"/>
    <path id="Path_1072" data-name="Path 1072" d="M6.389,75.951,7.205,72.3H8.658l-.99,3.653Z" transform="translate(-3.093 -72.132)" fill="#fff"/>
    <path id="Path_1073" data-name="Path 1073" d="M14.692,79.584H10.887l-.914,2.7H8.361L11.966,72.3h1.675l3.6,9.985H15.606Zm-3.411-1.245H14.3l-1.487-4.379h-.042Z" transform="translate(-3.479 -72.132)" fill="#fff"/>
    <path id="Path_1074" data-name="Path 1074" d="M27.422,79.284c0,2.262-1.211,3.715-3.038,3.715a2.466,2.466,0,0,1-2.29-1.273H22.06v3.606H20.565V75.644h1.446v1.211h.027a2.584,2.584,0,0,1,2.318-1.286C26.2,75.568,27.422,77.028,27.422,79.284Zm-1.536,0c0-1.474-.762-2.442-1.924-2.442-1.142,0-1.909.989-1.909,2.442s.768,2.449,1.909,2.449C25.124,81.733,25.887,80.771,25.887,79.284Z" transform="translate(-5.872 -72.773)" fill="#fff"/>
    <path id="Path_1075" data-name="Path 1075" d="M37.386,79.284c0,2.262-1.211,3.715-3.037,3.715a2.468,2.468,0,0,1-2.291-1.273h-.035v3.606H30.53V75.644h1.446v1.211H32a2.582,2.582,0,0,1,2.318-1.286C36.168,75.568,37.386,77.028,37.386,79.284Zm-1.536,0c0-1.474-.761-2.442-1.924-2.442-1.142,0-1.909.989-1.909,2.442s.768,2.449,1.909,2.449C35.089,81.733,35.851,80.771,35.851,79.284Z" transform="translate(-7.825 -72.773)" fill="#fff"/>
    <path id="Path_1076" data-name="Path 1076" d="M45.271,79.46c.111.99,1.073,1.64,2.387,1.64,1.259,0,2.165-.65,2.165-1.543,0-.775-.547-1.239-1.84-1.557l-1.294-.312C44.856,77.245,44,76.388,44,75c0-1.722,1.5-2.906,3.632-2.906,2.11,0,3.556,1.183,3.605,2.906H49.734c-.09-1-.914-1.6-2.118-1.6s-2.027.609-2.027,1.494c0,.706.526,1.122,1.812,1.439l1.1.27c2.048.485,2.9,1.308,2.9,2.768,0,1.868-1.488,3.038-3.854,3.038-2.214,0-3.709-1.142-3.805-2.948Z" transform="translate(-10.415 -72.091)" fill="#fff"/>
    <path id="Path_1077" data-name="Path 1077" d="M56.656,73.52v1.722h1.384v1.183H56.656v4.013c0,.623.277.913.885.913a4.585,4.585,0,0,0,.492-.035v1.176a4.089,4.089,0,0,1-.831.069c-1.474,0-2.048-.553-2.048-1.965V76.426H54.1V75.242h1.059V73.52Z" transform="translate(-12.445 -72.371)" fill="#fff"/>
    <path id="Path_1078" data-name="Path 1078" d="M60,79.281c0-2.291,1.348-3.73,3.452-3.73S66.9,76.99,66.9,79.281s-1.335,3.73-3.452,3.73S60,81.578,60,79.281Zm5.383,0c0-1.571-.72-2.5-1.93-2.5s-1.931.934-1.931,2.5.72,2.5,1.931,2.5S65.381,80.858,65.381,79.281Z" transform="translate(-13.601 -72.769)" fill="#fff"/>
    <path id="Path_1079" data-name="Path 1079" d="M70.119,75.644h1.425v1.239h.035a1.736,1.736,0,0,1,1.751-1.314,2.325,2.325,0,0,1,.512.055v1.4a2.106,2.106,0,0,0-.671-.09,1.506,1.506,0,0,0-1.557,1.675v4.318H70.119Z" transform="translate(-15.585 -72.773)" fill="#fff"/>
    <path id="Path_1080" data-name="Path 1080" d="M81.716,80.782a2.922,2.922,0,0,1-3.135,2.229c-2.117,0-3.431-1.419-3.431-3.7s1.321-3.764,3.369-3.764c2.014,0,3.28,1.384,3.28,3.591v.512H76.658v.09a1.9,1.9,0,0,0,1.958,2.062A1.646,1.646,0,0,0,80.3,80.782Zm-5.051-2.172H80.3a1.751,1.751,0,0,0-1.786-1.848A1.842,1.842,0,0,0,76.665,78.609Z" transform="translate(-16.572 -72.769)" fill="#fff"/>
  </g>
</svg>
