<?xml version="1.0" encoding="utf-8"?>
<!-- Generator: Adobe Illustrator 22.0.0, SVG Export Plug-In . SVG Version: 6.00 Build 0)  -->
<svg version="1.1" id="Layer_1" xmlns="http://www.w3.org/2000/svg" xmlns:xlink="http://www.w3.org/1999/xlink" x="0px" y="0px"
	 viewBox="0 0 24 24" enable-background="new 0 0 24 24" xml:space="preserve">
<path id="Path_1083" fill="#42475E" d="M22.4,6.2h-5.8V4.9c0-1.4-1.2-2.6-2.6-2.6h-3.8c-1.4,0-2.6,1.2-2.6,2.6v1.3H1.6
	C1.3,6.2,1,6.5,1,6.8c0,0,0,0,0,0v11.7c0,1.8,1.4,3.2,3.2,3.2h15.7c1.8,0,3.2-1.4,3.2-3.2V6.8C23,6.5,22.7,6.2,22.4,6.2z M13.5,14.6
	c0,0.8-0.7,1.4-1.5,1.4c-0.8,0-1.4-0.6-1.4-1.4v-1.5h2.9V14.6z M14.1,11.8H9.9c-0.4,0-0.6,0.3-0.6,0.6l0,0v1.2
	c-3.7-0.8-6.6-3.2-6.9-6.2h19.3c-0.4,2.9-3.2,5.4-6.9,6.2v-1.2C14.8,12.1,14.5,11.8,14.1,11.8L14.1,11.8L14.1,11.8z M8.8,4.9
	c0-0.7,0.6-1.3,1.3-1.3h3.9c0.7,0,1.3,0.6,1.3,1.3v1.3H8.8C8.8,6.2,8.8,4.9,8.8,4.9z M21.7,18.5c0,1-0.8,1.9-1.9,1.9H4.2
	c-1,0-1.9-0.8-1.9-1.9v-7.7c0.6,0.8,1.2,1.5,2,2c1.5,1.1,3.2,1.8,5,2.1c0.2,1.5,1.6,2.5,3.1,2.3c1.2-0.2,2.2-1.1,2.3-2.3
	c1.8-0.3,3.5-1.1,5-2.1c0.8-0.6,1.4-1.3,2-2L21.7,18.5z"/>
</svg>
