<?xml version="1.0" encoding="utf-8"?>
<!-- Generator: Adobe Illustrator 22.0.0, SVG Export Plug-In . SVG Version: 6.00 Build 0)  -->
<svg version="1.1" id="Layer_1" xmlns="http://www.w3.org/2000/svg" xmlns:xlink="http://www.w3.org/1999/xlink" x="0px" y="0px"
	 viewBox="0 0 24 24" enable-background="new 0 0 24 24" xml:space="preserve">
<g id="icon_BTP" transform="translate(467.008 490)">
	<path id="Path_877" fill="#03334F" d="M-454.7-479.6c0.2,0.2,0.4,0.4,0.7,0.6c0.2,0.2,0.5,0.3,0.8,0.3c0.2,0,0.3,0,0.5-0.1l0.5,0.5
		c-0.2,0.4-0.2,0.9,0.1,1.3c0.3,0.3,0.5,0.6,0.9,0.9c0.5,0.4,1.1,0.4,1.6,0c0.9-0.8,1.7-1.6,2.5-2.5c0.4-0.4,0.4-1.1,0-1.6
		c-0.3-0.3-0.5-0.6-0.9-0.9s-0.9-0.4-1.3-0.1l-0.5-0.5c0.2-0.5,0.1-1-0.2-1.3c-0.2-0.2-0.4-0.4-0.6-0.7l0,0c0.4-0.4,0.4-1.1,0-1.5
		l-0.8-0.8c-0.2-0.2-0.5-0.3-0.7-0.3l0,0c-0.3,0-0.5,0.1-0.7,0.3l0,0c-0.4-0.4-0.8-0.7-1.2-1.1l0,0c-0.3-0.2-0.5-0.4-0.7-0.6
		c-0.1-0.1-0.3-0.1-0.5,0.1c-0.1,0.1-0.1,0.3,0.1,0.5l0,0c0.2,0.2,0.5,0.3,0.7,0.5c1.4,1.2,2.8,2.6,4.1,4c0.2,0.2,0.2,0.6,0,0.8
		c-0.7,0.8-1.5,1.6-2.3,2.3c-0.2,0.2-0.6,0.2-0.8,0c-1.2-1.1-2.4-2.2-3.5-3.5c-0.2-0.2-0.2-0.6,0-0.8c0.3-0.4,0.7-0.8,1.1-1.2
		c0.1-0.1,0.1-0.3,0-0.5l0,0c-1.1-1.1-2.6-1.7-4.1-1.9c-0.2,0-0.3-0.1-0.4-0.3c0-0.1,0-0.2,0-0.3c0.1-0.1,0.2-0.2,0.3-0.2
		c1.3-0.3,2.6-0.2,3.8,0.4c0.2,0.1,0.4,0,0.4-0.1s0-0.4-0.1-0.4l0,0c-1.3-0.7-2.8-0.9-4.3-0.5c-0.3,0.1-0.5,0.3-0.7,0.5
		c-0.1,0.3-0.2,0.6-0.1,0.8c0.1,0.4,0.5,0.7,0.9,0.8c1.3,0.1,2.5,0.7,3.5,1.5c-0.3,0.3-0.6,0.7-0.9,1c-0.4,0.5-0.4,1.2,0,1.6
		c0.2,0.2,0.4,0.4,0.6,0.6l-2.4,2.4c-0.4-0.1-0.9,0-1.3,0.3c-1.6,1.4-3.1,3-4.5,4.5c-0.5,0.5-0.5,1.3-0.1,1.8c0.4,0.6,0.9,1,1.5,1.5
		c0.5,0.4,1.3,0.4,1.8-0.1c1.6-1.4,3.1-3,4.5-4.5c0.3-0.3,0.4-0.8,0.3-1.3L-454.7-479.6z M-452.4-485.5c0.1-0.1,0.2-0.1,0.3-0.1l0,0
		c0.1,0,0.2,0,0.3,0.1l0.8,0.8c0.2,0.2,0.2,0.4,0,0.6C-451.5-484.6-451.9-485.1-452.4-485.5L-452.4-485.5z M-448.7-480.7
		c0.1,0,0.2,0,0.3,0.1c0.3,0.2,0.5,0.5,0.8,0.8c0.2,0.2,0.2,0.5,0,0.7c-0.8,0.8-1.6,1.7-2.5,2.5c-0.2,0.2-0.5,0.2-0.7,0
		c-0.3-0.2-0.5-0.5-0.8-0.8c-0.2-0.2-0.2-0.5,0-0.7c0.8-0.8,1.6-1.7,2.5-2.5C-449-480.6-448.8-480.7-448.7-480.7L-448.7-480.7z
		 M-450.1-481.1l0.4,0.4c-0.7,0.6-1.3,1.3-2,2l-0.4-0.4C-451.4-479.8-450.7-480.4-450.1-481.1z M-455.1-480l-2.2,2.2
		c-0.4-0.5-0.9-1-1.4-1.4l2.2-2.2C-456.1-480.9-455.6-480.5-455.1-480L-455.1-480z M-457.8-476.4c-1.4,1.5-2.9,3.1-4.5,4.5
		c-0.3,0.2-0.7,0.3-1,0c-0.5-0.4-1-0.9-1.4-1.4c-0.2-0.3-0.2-0.7,0-1c1.4-1.5,2.9-3.1,4.5-4.5c0.3-0.2,0.7-0.3,1,0
		c0.5,0.4,1,0.9,1.4,1.4C-457.6-477.1-457.6-476.7-457.8-476.4L-457.8-476.4z"/>
	<path id="Path_878" fill="#03334F" d="M-444.7-474.5c-0.1-0.3-0.4-0.5-0.6-0.6c-1.8-0.5-3.7-0.5-5.5,0c-0.6,0.2-0.9,0.8-0.7,1.4
		s0.8,0.9,1.4,0.7c0,0,0,0,0.1,0c0.2-0.1,0.5-0.1,0.7-0.2v4.5c0,0.1,0,0.1,0.1,0.2l0.9,1.4c0.1,0.1,0.3,0.2,0.4,0.1l0.1-0.1l0.9-1.4
		c0-0.1,0.1-0.1,0.1-0.2v-1.1c0-0.2-0.1-0.3-0.3-0.3s-0.3,0.1-0.3,0.3l0,0v1l-0.6,0.9l-0.6-0.9v-4.5c0.2,0,0.4,0,0.6,0s0.4,0,0.6,0
		v2.2c0,0.2,0.1,0.3,0.3,0.3s0.3-0.1,0.3-0.3l0,0v-2.1c0.2,0,0.5,0.1,0.7,0.2c0.6,0.2,1.2-0.1,1.4-0.7
		C-444.5-474-444.6-474.3-444.7-474.5L-444.7-474.5z M-445.3-473.9c-0.1,0.2-0.4,0.4-0.6,0.3c-1.4-0.4-2.9-0.4-4.4,0
		c-0.2,0.1-0.5,0-0.6-0.3c-0.1-0.2,0-0.5,0.3-0.6l0,0c1.6-0.5,3.4-0.5,5,0C-445.3-474.4-445.2-474.2-445.3-473.9L-445.3-473.9z"/>
	<path id="Path_879" fill="#03334F" d="M-455.2-474.8l1-0.1c0.5,0,0.9-0.4,0.8-0.9v-0.1c0-0.5-0.4-0.9-0.9-0.9l-1-0.1
		c-0.5,0-0.9,0.4-1,0.9c0,0,0,0,0,0.1v0.2C-456.2-475.2-455.8-474.8-455.2-474.8C-455.3-474.8-455.3-474.8-455.2-474.8z
		 M-455.5-475.5c-0.1-0.1-0.1-0.1-0.1-0.2v-0.2c0-0.2,0.1-0.3,0.3-0.3l0,0l0,0l1,0.1c0.1,0,0.3,0.1,0.3,0.3l0,0v0.1
		c0,0.1-0.1,0.3-0.3,0.3l-1,0.1C-455.4-475.4-455.4-475.5-455.5-475.5L-455.5-475.5z"/>
	<path id="Path_880" fill="#03334F" d="M-452.8-473.6L-452.8-473.6c-0.3-0.5-0.8-0.6-1.2-0.4l-0.9,0.4c-0.5,0.2-0.6,0.8-0.4,1.2
		c0,0,0,0,0,0.1l0.1,0.2c0.3,0.4,0.8,0.6,1.3,0.3c0,0,0,0,0.1,0l0.8-0.5C-452.6-472.7-452.5-473.2-452.8-473.6z M-453.4-473
		l-0.8,0.5c-0.1,0.1-0.3,0.1-0.4-0.1l0,0l-0.1-0.2c-0.1-0.1,0-0.3,0.1-0.4l0,0l0.9-0.4c0.1-0.1,0.3,0,0.4,0.1l0,0v0.1
		C-453.3-473.2-453.3-473-453.4-473L-453.4-473z"/>
	<path id="Path_881" fill="#03334F" d="M-451.2-472L-451.2-472c-0.5-0.3-1-0.2-1.3,0.3l-0.5,0.8c-0.3,0.4-0.2,1,0.3,1.3
		c0,0,0,0,0.1,0l0.2,0.1c0.4,0.2,1,0.1,1.3-0.3c0,0,0,0,0-0.1l0.4-0.9C-450.6-471.3-450.7-471.8-451.2-472z M-451.4-471.1l-0.4,0.9
		c-0.1,0.1-0.2,0.2-0.4,0.1l0,0l-0.2-0.1c-0.1-0.1-0.2-0.2-0.1-0.4l0,0l0.5-0.8c0.1-0.1,0.1-0.1,0.2-0.1h0.1h0.1
		C-451.4-471.4-451.3-471.3-451.4-471.1z"/>
</g>
</svg>
