<?xml version="1.0" encoding="utf-8"?>
<!-- Generator: Adobe Illustrator 22.0.0, SVG Export Plug-In . SVG Version: 6.00 Build 0)  -->
<svg version="1.1" id="Layer_1" xmlns="http://www.w3.org/2000/svg" xmlns:xlink="http://www.w3.org/1999/xlink" x="0px" y="0px"
	 viewBox="0 0 24 24" enable-background="new 0 0 24 24" xml:space="preserve">
<g id="Group_9767" transform="translate(0)">
	<path id="Path_1081" d="M3.1,18.6h0.1l5.7-1.2c0.1,0,0.2-0.1,0.3-0.1L19,7.5c0.7-0.7,1.1-1.7,1.1-2.7c0-1-0.4-2-1.1-2.7
		C18.2,1.4,17.3,1,16.3,1c-1,0-2,0.4-2.7,1.1l-9.7,9.7c-0.1,0.1-0.1,0.2-0.2,0.3l-1.2,5.7c0,0.2,0,0.4,0.2,0.6
		C2.8,18.5,2.9,18.6,3.1,18.6z M16.3,2.2c1.4,0,2.6,1.2,2.6,2.6c0,0,0,0,0,0c0,0.7-0.3,1.3-0.7,1.8l-3.7-3.7
		C14.9,2.5,15.6,2.2,16.3,2.2z M13.6,3.8l3.7,3.7l-8.5,8.4l-3.7-3.6L13.6,3.8z M4.7,13.5l2.9,2.9l-3.8,0.8L4.7,13.5z"/>
	<path id="Path_1082" d="M22,21.8H2c-0.3,0-0.6,0.3-0.6,0.6C1.4,22.7,1.7,23,2,23H22c0.3,0,0.6-0.3,0.6-0.6
		C22.6,22.1,22.3,21.8,22,21.8z"/>
</g>
</svg>
