<?xml version="1.0" encoding="utf-8"?>
<!-- Generator: Adobe Illustrator 22.0.0, SVG Export Plug-In . SVG Version: 6.00 Build 0)  -->
<svg version="1.1" id="Group_10025" xmlns="http://www.w3.org/2000/svg" xmlns:xlink="http://www.w3.org/1999/xlink" x="0px"
	 y="0px" viewBox="0 0 24 24" enable-background="new 0 0 24 24" xml:space="preserve">
<g>
	<path id="Path_1121" fill="#3E5C9A" d="M12,23L12,23C5.9,23,1,18.1,1,12l0,0C1,5.9,5.9,1,12,1l0,0c6.1,0,11,4.9,11,11l0,0
		C23,18.1,18.1,23,12,23C12,23,12,23,12,23z"/>
	<path id="Path_1122" fill="#FFFFFF" d="M10.3,18.6H13v-6.7h1.9l0.2-2.2H13V8.4c0-0.5,0.1-0.7,0.6-0.7h1.4V5.4h-1.9
		c-2,0-2.9,0.9-2.9,2.6v1.8H8.9V12h1.4V18.6z"/>
</g>
</svg>
