<?xml version="1.0" encoding="utf-8"?>
<!-- Generator: Adobe Illustrator 22.0.0, SVG Export Plug-In . SVG Version: 6.00 Build 0)  -->
<svg version="1.1" id="Layer_1" xmlns="http://www.w3.org/2000/svg" xmlns:xlink="http://www.w3.org/1999/xlink" x="0px" y="0px"
	 viewBox="0 0 24 24" enable-background="new 0 0 24 24" xml:space="preserve">
<g id="Group_9715" transform="translate(0.267 0.267)">
	<path id="Volume-2" fill="#FFFFFF" d="M9.8,18.8c1.9-2,1.9-5.1,0-7.1l0.5-0.6c2.3,2.2,2.3,5.8,0.1,8l-0.1,0.1L9.8,18.8z M7.7,16.7
		c0.8-0.8,0.8-2.2,0-3l0.5-0.6c1.1,1.1,1.1,2.9,0,4.1L7.7,16.7z"/>
	<path id="Volume-3" fill="#FFFFFF" d="M11.8,20.8c3.1-3,3.1-7.9,0.1-11l-0.1-0.1l0.6-0.6c3.4,3.3,3.4,8.8,0.1,12.2c0,0,0,0-0.1,0.1
		L11.8,20.8z"/>
	<path id="Path_997" fill="#FFFFFF" d="M2.4,11c0-0.1,0-0.2,0-0.4c-0.1-5.1,4-9.2,9.1-9.3s9.2,4,9.3,9.1c0,0.1,0,0.1,0,0.2
		c0,0.1,0,0.2,0,0.4c1.1,0.5,1.8,1.6,1.8,2.8v2.8c0,1.7-1.4,3.1-3.1,3.1v0.7c0,0.2-0.2,0.3-0.3,0.3l0,0h-1.4c-0.2,0-0.3-0.2-0.3-0.3
		l0,0V10c0-0.2,0.2-0.3,0.3-0.3l0,0h1c-0.6-3.9-4.4-6.6-8.3-6c-3.1,0.5-5.5,2.9-6,6h1c0.2,0,0.3,0.2,0.3,0.3l0,0v10.3
		c0,0.2-0.2,0.3-0.3,0.3l0,0H4c-0.2,0-0.3-0.2-0.3-0.3l0,0v-0.7c-1.7,0-3.1-1.4-3.1-3.1v-2.8C0.6,12.6,1.3,11.5,2.4,11z M19.5,19
		c1.3,0,2.4-1.1,2.4-2.4v-2.8c0-1.3-1.1-2.4-2.4-2.4V19z M18.1,10.4V20h0.7v-9.6H18.1z M4.4,20H5v-9.6H4.4V20z M3.7,9.9
		C4.2,5.6,8.2,2.5,12.5,3c3.6,0.4,6.5,3.3,6.9,6.9V10v0.2c0,0.2,0,0.4,0,0.5c0.2,0,0.4,0,0.6,0.1c0-0.1,0-0.1,0-0.2
		c0-4.7-3.8-8.5-8.5-8.5S3,5.9,3,10.6c0,0.1,0,0.1,0,0.2c0.2,0,0.4-0.1,0.6-0.1c0-0.2,0-0.4,0-0.5V10C3.7,10,3.7,10,3.7,9.9L3.7,9.9
		z M1.3,16.6c0,1.3,1.1,2.4,2.4,2.4v-7.6c-1.3,0-2.4,1.1-2.4,2.4V16.6z"/>
	<path id="Path_998" fill="#FFFFFF" d="M20.5,15.7c0.2,0,0.3,0.2,0.3,0.3l0,0v0.3c0,0.2-0.2,0.3-0.3,0.3s-0.3-0.2-0.3-0.3V16
		C20.2,15.9,20.3,15.7,20.5,15.7L20.5,15.7z"/>
	<path id="Path_999" fill="#FFFFFF" d="M20.5,14.4c0.2,0,0.3,0.2,0.3,0.3l0,0V15c0,0.2-0.2,0.3-0.3,0.3s-0.3-0.2-0.3-0.3v-0.3
		C20.2,14.5,20.3,14.4,20.5,14.4L20.5,14.4z"/>
	<path id="Path_1000" fill="#FFFFFF" d="M20.5,13c0.2,0,0.3,0.2,0.3,0.3l0,0v0.3c0,0.2-0.2,0.3-0.3,0.3s-0.3-0.2-0.3-0.3v-0.3
		C20.2,13.1,20.3,13,20.5,13L20.5,13z"/>
</g>
</svg>
