<?xml version="1.0" encoding="utf-8"?>
<!-- Generator: Adobe Illustrator 22.0.0, SVG Export Plug-In . SVG Version: 6.00 Build 0)  -->
<svg version="1.1" id="Group_10027" xmlns="http://www.w3.org/2000/svg" xmlns:xlink="http://www.w3.org/1999/xlink" x="0px"
	 y="0px" viewBox="0 0 24 24" enable-background="new 0 0 24 24" xml:space="preserve">
<g>
	
		<radialGradient id="Path_1123_1_" cx="-651.2793" cy="385.2363" r="1.1639" gradientTransform="matrix(34.951 0 0 -34.95 22763.3105 13487.0547)" gradientUnits="userSpaceOnUse">
		<stop  offset="0" style="stop-color:#F5EC53"/>
		<stop  offset="0.241" style="stop-color:#E48244"/>
		<stop  offset="0.397" style="stop-color:#D05667"/>
		<stop  offset="0.489" style="stop-color:#C84278"/>
		<stop  offset="1" style="stop-color:#192CFA"/>
	</radialGradient>
	<path id="Path_1123" fill="url(#Path_1123_1_)" d="M12,23L12,23C5.9,23,1,18.1,1,12l0,0C1,5.9,5.9,1,12,1l0,0c6.1,0,11,4.9,11,11
		c0,0,0,0,0,0l0,0C23,18.1,18.1,23,12,23C12,23,12,23,12,23z"/>
	<path id="Path_1124" fill="#FFFFFF" d="M12,7.1c1.6,0,1.8,0,2.4,0c0.4,0,0.8,0.1,1.1,0.2c0.5,0.2,0.9,0.6,1.1,1.1
		c0.1,0.4,0.2,0.7,0.2,1.1c0,0.6,0,0.8,0,2.4s0,1.8,0,2.4c0,0.4-0.1,0.8-0.2,1.1c-0.2,0.5-0.6,0.9-1.1,1.1c-0.4,0.1-0.7,0.2-1.1,0.2
		c-0.6,0-0.8,0-2.4,0s-1.8,0-2.4,0c-0.4,0-0.8-0.1-1.1-0.2c-0.5-0.2-0.9-0.6-1.1-1.1c-0.1-0.4-0.2-0.7-0.2-1.1c0-0.6,0-0.8,0-2.4
		s0-1.8,0-2.4c0-0.4,0.1-0.8,0.2-1.1c0.2-0.5,0.6-0.9,1.1-1.1c0.4-0.1,0.7-0.2,1.1-0.2C10.2,7.1,10.4,7.1,12,7.1 M12,6
		c-1.6,0-1.8,0-2.5,0C9,6,8.5,6.1,8,6.3C7.2,6.6,6.6,7.2,6.3,8C6.1,8.5,6,9,6,9.5c0,0.6,0,0.8,0,2.5s0,1.8,0,2.5
		c0,0.5,0.1,1,0.3,1.5c0.3,0.8,1,1.4,1.8,1.8C8.5,17.9,9,18,9.5,18c0.6,0,0.8,0,2.5,0s1.8,0,2.5,0c0.5,0,1-0.1,1.5-0.3
		c0.8-0.3,1.4-1,1.8-1.8c0.2-0.5,0.3-1,0.3-1.5c0-0.6,0-0.8,0-2.5s0-1.8,0-2.5c0-0.5-0.1-1-0.3-1.5c-0.3-0.8-1-1.4-1.8-1.8
		C15.5,6.1,15,6,14.5,6C13.8,6,13.6,6,12,6"/>
	<path id="Path_1125" fill="#FFFFFF" d="M12,8.9c-1.7,0-3.1,1.4-3.1,3.1c0,1.7,1.4,3.1,3.1,3.1c1.7,0,3.1-1.4,3.1-3.1
		C15.1,10.3,13.7,8.9,12,8.9C12,8.9,12,8.9,12,8.9 M12,14c-1.1,0-2-0.9-2-2c0-1.1,0.9-2,2-2s2,0.9,2,2l0,0C14,13.1,13.1,14,12,14"/>
	<path id="Path_1126" fill="#FFFFFF" d="M15.9,8.8c0,0.4-0.3,0.7-0.7,0.7c-0.4,0-0.7-0.3-0.7-0.7c0-0.4,0.3-0.7,0.7-0.7
		C15.6,8.1,15.9,8.4,15.9,8.8L15.9,8.8"/>
</g>
</svg>
