<?xml version="1.0" encoding="utf-8"?>
<!-- Generator: Adobe Illustrator 22.0.0, SVG Export Plug-In . SVG Version: 6.00 Build 0)  -->
<svg version="1.1" id="Group_10023" xmlns="http://www.w3.org/2000/svg" xmlns:xlink="http://www.w3.org/1999/xlink" x="0px"
	 y="0px" viewBox="0 0 24 24" enable-background="new 0 0 24 24" xml:space="preserve">
<g>
	<path id="Path_1116" fill="#117BB8" d="M12,23L12,23C5.9,23,1,18.1,1,12c0,0,0,0,0,0l0,0C1,5.9,5.9,1,12,1c0,0,0,0,0,0l0,0
		c6.1,0,11,4.9,11,11l0,0C23,18.1,18.1,23,12,23z"/>
	<g id="Group_10022" transform="translate(9.204 7.737)">
		<g id="Group_10021">
			<rect id="Rectangle_3575" x="-2.2" y="1.8" fill="#FFFFFF" width="2.3" height="7.4"/>
			<path id="Path_1117" fill="#FFFFFF" d="M-1.1,0.8c0.7,0,1.4-0.6,1.4-1.3c0-0.7-0.6-1.4-1.3-1.4c-0.7,0-1.4,0.6-1.4,1.3
				c0,0,0,0,0,0C-2.4,0.2-1.8,0.8-1.1,0.8C-1.1,0.8-1.1,0.8-1.1,0.8z"/>
		</g>
		<path id="Path_1118" fill="#FFFFFF" d="M3.7,5.3c0-1,0.5-1.6,1.4-1.6c0.8,0,1.2,0.6,1.2,1.6v3.9h2.3V4.5c0-2-1.1-2.9-2.7-2.9
			C5,1.6,4.2,2,3.7,2.8v-1H1.5v7.4h2.2V5.3z"/>
	</g>
</g>
</svg>
