<?xml version="1.0" encoding="utf-8"?>
<!-- Generator: Adobe Illustrator 22.0.0, SVG Export Plug-In . SVG Version: 6.00 Build 0)  -->
<svg version="1.1" id="icon_logistique" xmlns="http://www.w3.org/2000/svg" xmlns:xlink="http://www.w3.org/1999/xlink" x="0px"
	 y="0px" viewBox="0 0 24 24" enable-background="new 0 0 24 24" xml:space="preserve">
<g id="Group_9796">
	<path id="Path_886" fill="#03334F" d="M17,23c-3.3,0-6-2.7-6-6s2.7-6,6-6s6,2.7,6,6l0,0C23,20.3,20.3,23,17,23z M17,12
		c-2.8,0-5,2.3-5,5s2.3,5,5,5s5-2.3,5-5l0,0C22.1,14.3,19.8,12,17,12L17,12z"/>
	<path id="Path_887" fill="#03334F" d="M16.1,19.3c-0.1,0-0.2,0-0.3-0.1L14,17.4c-0.2-0.2-0.1-0.5,0-0.6c0.2-0.1,0.4-0.1,0.6,0
		l1.5,1.5L19,15c0.2-0.2,0.5-0.2,0.6,0c0.2,0.2,0.2,0.5,0,0.6l-3.2,3.7C16.4,19.3,16.3,19.3,16.1,19.3L16.1,19.3z"/>
	<path id="Path_888" fill="#03334F" d="M9.7,19.3H3.3c-0.8,0-1.4-0.6-1.4-1.4v-10c0-0.3,0.2-0.5,0.5-0.5H18c0.3,0,0.5,0.2,0.5,0.5
		v1.9c0,0.3-0.2,0.5-0.5,0.5s-0.5-0.2-0.5-0.5V8.3H2.8V18c0,0.3,0.2,0.5,0.5,0.5h6.4c0.3,0,0.5,0.2,0.5,0.5S10,19.3,9.7,19.3
		L9.7,19.3z"/>
	<path id="Path_889" fill="#03334F" d="M12.5,11.1H7.9c-0.3,0-0.5-0.2-0.5-0.5s0.2-0.5,0.5-0.5h4.6c0.3,0,0.5,0.2,0.5,0.5
		C12.9,10.9,12.7,11.1,12.5,11.1L12.5,11.1z"/>
	<path id="Path_890" fill="#03334F" d="M18.9,8.3H1.5C1.2,8.3,1,8.1,1,7.9V4.2C1,4,1.2,3.8,1.5,3.8h17.4c0.3,0,0.5,0.2,0.5,0.5V8
		C19.3,8.1,19.1,8.3,18.9,8.3z M1.9,7.4h16.5V4.7H1.9V7.4z"/>
	<path id="Path_891" fill="#03334F" d="M18.9,4.7c-0.1,0-0.2,0-0.3-0.1L16,2H4.4L1.8,4.5c-0.2,0.2-0.5,0.1-0.6,0
		C1,4.3,1,4.1,1.1,3.9l2.7-2.8C4,1,4.1,1,4.2,1h11.9c0.1,0,0.2,0,0.3,0.1l2.7,2.7c0.2,0.2,0.2,0.5,0,0.6C19.1,4.6,19,4.7,18.9,4.7z"
		/>
</g>
</svg>
