<?xml version="1.0" encoding="utf-8"?>
<!-- Generator: Adobe Illustrator 22.0.0, SVG Export Plug-In . SVG Version: 6.00 Build 0)  -->
<svg version="1.1" id="login" xmlns="http://www.w3.org/2000/svg" xmlns:xlink="http://www.w3.org/1999/xlink" x="0px" y="0px"
	 viewBox="0 0 24 24" enable-background="new 0 0 24 24" xml:space="preserve">
<g>
	<path id="Path_1013" d="M15.6,12.7H1.7C1.3,12.7,1,12.4,1,12c0-0.4,0.3-0.7,0.7-0.7h13.9c0.4,0,0.7,0.3,0.7,0.7
		C16.3,12.4,16,12.7,15.6,12.7z"/>
	<path id="Path_1014" d="M11.8,16.5c-0.4,0-0.7-0.3-0.7-0.7c0-0.2,0.1-0.4,0.2-0.5l3.3-3.3l-3.3-3.3c-0.3-0.3-0.3-0.7,0-1
		c0.3-0.3,0.7-0.3,1,0l3.8,3.8c0.3,0.3,0.3,0.7,0,1c0,0,0,0,0,0l-3.8,3.8C12.1,16.5,11.9,16.6,11.8,16.5z"/>
	<path id="Path_1015" d="M12.5,22.5c-4.3,0-8.2-2.6-9.8-6.7c-0.2-0.4,0-0.8,0.4-0.9s0.8,0,0.9,0.4c0,0,0,0,0,0
		c1.8,4.7,7.1,7,11.8,5.1s7-7.1,5.1-11.8c-1.8-4.7-7.1-7-11.8-5.1C6.8,4.5,4.9,6.3,4,8.7C3.9,9.1,3.5,9.2,3.1,9.1
		C2.7,9,2.5,8.6,2.7,8.2c0,0,0,0,0,0c2.1-5.4,8.2-8.1,13.6-5.9c5.4,2.1,8.1,8.2,5.9,13.6C20.7,19.9,16.8,22.5,12.5,22.5z"/>
</g>
</svg>
