<?xml version="1.0" encoding="utf-8"?>
<!-- Generator: Adobe Illustrator 22.0.0, SVG Export Plug-In . SVG Version: 6.00 Build 0)  -->
<svg version="1.1" id="Layer_1" xmlns="http://www.w3.org/2000/svg" xmlns:xlink="http://www.w3.org/1999/xlink" x="0px" y="0px"
	 viewBox="0 0 86 32" enable-background="new 0 0 86 32" xml:space="preserve">
<g id="Group_10488" transform="translate(-62.641 -18)">
	<path id="Path_992" fill="#FFFFFF" d="M103.4,19.7v8h3.5V36h-3.5c-0.1,1.2,0.2,2.4,0.8,3.4c0.8,0.7,1.8,1.1,2.9,0.9v8.3
		c-0.4,0-0.7,0-0.9,0c-1.8,0-3.5-0.4-5-1.2c-1.5-0.8-2.8-1.9-3.8-3.4c-1.3-2.2-1.9-4.7-1.8-7.2V19.7H103.4z"/>
	<path id="Path_993" fill="#FFFFFF" d="M122.4,40.5v8.1c-0.6,0.1-1.2,0.2-1.8,0.2c-2.9,0.1-5.8-1-7.9-3.1c-4.3-4.3-4.3-11.2,0-15.5
		c2.1-2.1,4.9-3.2,7.8-3.2c3-0.2,5.9,0.9,8,3c2,2.2,3.1,5.1,2.9,8.1v10.3h-7.9v-9.7c0-0.9-0.2-1.9-0.8-2.6c-0.5-0.7-1.3-1-2.2-1
		c-1.7,0-3.1,1.4-3,3.1c0,0.8,0.3,1.5,0.8,2c0.5,0.6,1.3,0.9,2.1,0.8C121.1,41.1,121.8,40.9,122.4,40.5z"/>
	<path id="Path_994" fill="#FFFFFF" d="M147.4,32.1v8.2h-3.5v8.1H136V30.6c0-1.8,0.3-3.5,1-5.1c0.9-1.8,2.2-3.3,4-4.4
		c1.6-1.1,3.6-1.7,5.5-1.7l0.8,0v8.2c-0.2,0-0.3,0-0.4,0c-0.9-0.1-1.7,0.3-2.3,1c-0.6,0.8-0.9,1.8-0.8,2.8v0.7L147.4,32.1z"/>
	<path id="Path_995" fill="#FFFFFF" d="M78.6,19.2c-8.1,0-14.7,6.6-14.7,14.7c0,8.1,6.6,14.7,14.7,14.7c8.1,0,14.7-6.6,14.7-14.7
		l0,0C93.4,25.8,86.8,19.2,78.6,19.2z M78.6,46.9c-7.1,0-12.9-5.8-12.9-12.9S71.5,21,78.6,21c7.1,0,12.9,5.8,12.9,12.9l0,0
		C91.6,41.1,85.8,46.9,78.6,46.9z"/>
	<path id="Path_996" fill="#FFFFFF" d="M84.2,33.1c-1.4-0.9-2.8-1.7-4.1-2.6c-1-0.6-2-1.3-3-1.9c-0.1,0-0.1-0.1-0.2-0.1
		c-0.5-0.2-0.7-0.1-0.7,0.5c0,1.1,0,2.3,0,3.4c0,0.4,0,0.8,0,1.2c0,1.5,0,2.9,0,4.4c0,0.1,0,0.3,0,0.4c0.1,0.5,0.3,0.6,0.7,0.3
		c2.4-1.5,4.8-3,7.2-4.5c0.1-0.1,0.2-0.1,0.3-0.2c0.2-0.2,0.2-0.4,0.1-0.6C84.3,33.2,84.2,33.1,84.2,33.1z"/>
</g>
</svg>
