<?xml version="1.0" encoding="utf-8"?>
<!-- Generator: Adobe Illustrator 22.0.0, SVG Export Plug-In . SVG Version: 6.00 Build 0)  -->
<svg version="1.1" id="Layer_1" xmlns="http://www.w3.org/2000/svg" xmlns:xlink="http://www.w3.org/1999/xlink" x="0px" y="0px"
	 viewBox="0 0 24 24" enable-background="new 0 0 24 24" xml:space="preserve">
<g id="Group_10489" transform="translate(-890.447 -907.284)">
	<path id="Path_1002" d="M900.4,912.3c-1.1,1.1-1.1,2.9,0,4.1c0.5,0.5,1.3,0.8,2,0.8l0,0c1.6,0,2.9-1.3,2.9-2.9
		c0-1.6-1.3-2.9-2.9-2.9C901.7,911.5,901,911.8,900.4,912.3z M902.4,912.3v0.2c1,0,1.9,0.8,1.9,1.9s-0.8,1.9-1.9,1.9
		c-1,0-1.9-0.8-1.9-1.9l0,0c0-1,0.8-1.9,1.9-1.9V912.3z"/>
	<path id="Path_1003" d="M913.4,929.6l-2.6-6.8c-0.1-0.2-0.3-0.3-0.5-0.3h-4.6c1.8-3.1,2.8-5.8,2.8-8.1c0-3.4-2.7-6.1-6.1-6.1
		s-6.1,2.7-6.1,6.1c0,2.3,0.9,5,2.8,8.1h-4.6c-0.2,0-0.4,0.1-0.5,0.3l-2.6,6.8c-0.1,0.3,0,0.6,0.3,0.7c0.1,0,0.1,0,0.2,0l0,0h21
		c0.3,0,0.5-0.2,0.5-0.5C913.4,929.7,913.4,929.6,913.4,929.6L913.4,929.6z M900.6,928.8L900.6,928.8l5.8-2.1l2,2.6h-9.2
		L900.6,928.8z M900.7,927.7l-3.2-4.2h2.3c0.7,1.1,1.5,2.2,2.3,3.2c0.2,0.2,0.5,0.2,0.7,0.1c0,0,0,0,0.1-0.1c0.8-1,1.6-2.1,2.3-3.2
		h4.8l0.3,0.8L900.7,927.7z M896.1,923.5l3.5,4.5l-3.5,1.2h-3.5l2.2-5.8L896.1,923.5z M909.7,929.3l-2.3-2.9l3.2-1.1l1.5,4.1
		L909.7,929.3z M902.4,909.3c2.8,0,5.1,2.3,5.1,5.1c0,0,0,0,0,0c0,4.3-3.9,9.7-5.1,11.1c-1.1-1.5-5.1-6.8-5.1-11.1
		C897.4,911.6,899.6,909.3,902.4,909.3l0-0.2l0,0L902.4,909.3z"/>
</g>
</svg>
