<?xml version="1.0" encoding="utf-8"?>
<!-- Generator: Adobe Illustrator 22.0.0, SVG Export Plug-In . SVG Version: 6.00 Build 0)  -->
<svg version="1.1" id="Layer_1" xmlns="http://www.w3.org/2000/svg" xmlns:xlink="http://www.w3.org/1999/xlink" x="0px" y="0px"
	 viewBox="0 0 24 24" enable-background="new 0 0 24 24" xml:space="preserve">
<g id="Group_9836" transform="translate(0 0)">
	<g id="Group_446" transform="translate(0 0)">
		<g id="Group_445">
			<path id="Path_861" fill="#42475E" d="M12,1C7.7,1,4.3,4.5,4.3,8.7c0,1.4,0.4,2.8,1.2,4.1l6.1,9.9c0.1,0.2,0.3,0.3,0.5,0.3l0,0
				c0.2,0,0.4-0.1,0.5-0.3l6-10c2.2-3.7,1-8.4-2.7-10.6C14.8,1.4,13.4,1,12,1z M17.5,12l-5.4,9.1l-5.6-9c-1.9-3-0.9-7,2.1-8.9
				c3-1.9,7-0.9,8.9,2.1C18.8,7.4,18.8,10,17.5,12L17.5,12z"/>
		</g>
	</g>
	<g id="Group_448" transform="translate(2.997 2.997)">
		<g id="Group_447" transform="translate(0)">
			<path id="Path_862" fill="#575757" d="M9,1.9c-2.1,0-3.9,1.7-3.9,3.9S6.9,9.6,9,9.6s3.9-1.7,3.9-3.9S11.1,1.9,9,1.9z M9,8.3
				c-1.4,0-2.6-1.2-2.6-2.6S7.6,3.2,9,3.2s2.6,1.2,2.6,2.6C11.6,7.2,10.4,8.3,9,8.3z"/>
		</g>
	</g>
</g>
</svg>
