<?xml version="1.0" encoding="utf-8"?>
<!-- Generator: Adobe Illustrator 22.0.0, SVG Export Plug-In . SVG Version: 6.00 Build 0)  -->
<svg version="1.1" id="icon_nettoyage" xmlns="http://www.w3.org/2000/svg" xmlns:xlink="http://www.w3.org/1999/xlink" x="0px"
	 y="0px" viewBox="0 0 24 24" enable-background="new 0 0 24 24" xml:space="preserve">
<g id="cleaning">
	<path id="Path_870" fill="#03334F" d="M21.2,9.1l-1.9-1.9l0.1-0.3l2.1-0.6c0.2-0.1,0.3-0.3,0.3-0.5c0-0.1-0.1-0.2-0.3-0.3l-2.1-0.6
		L18.9,3c0-0.2-0.3-0.3-0.5-0.3c-0.1,0-0.2,0.1-0.3,0.3l-0.5,1.9L17.1,5l-3-3c-1.2-1.2-3-1.2-4.2,0l0,0l-7,7c-1.1,1.2-1.1,3,0,4.2
		l0.4,0.4l-0.4,1.5c-0.2,1.1-1.5,3.1-1.6,3.1c-0.1,0.1-0.1,0.4,0,0.5l4.2,4.2c0.2,0.1,0.4,0.1,0.6,0l2.2-1.5
		c0.6-0.4,1.1-0.8,1.7-1.2l0,0c1.2,1.2,3,1.2,4.2,0l7-7C22.4,12.1,22.4,10.3,21.2,9.1z M18.1,5.6c0.1,0,0.2-0.1,0.3-0.3l0.1-0.6
		l0.1,0.6c0,0.1,0.1,0.2,0.3,0.3L20,5.9l-1.1,0.3c-0.1,0-0.2,0.1-0.3,0.3l-0.1,0.6l-0.1-0.6c0-0.1-0.1-0.2-0.3-0.3L17,5.9L18.1,5.6z
		 M7.9,20.9l-2,1.3l-3.7-3.7c0.7-1,1.2-2,1.5-3.1l1.6-5.7C5.3,9.2,5.7,9,6,9.1s0.5,0.4,0.5,0.7L5.8,13c0,0.2,0.1,0.4,0.3,0.5
		c0.1,0,0.3,0,0.4-0.1L11.9,8c0.2-0.2,0.6-0.2,0.8,0c0.2,0.2,0.2,0.6,0,0.8l0,0l0,0l-4,4c-0.1,0.2-0.1,0.4,0,0.5s0.4,0.1,0.5,0
		l5.1-5.1c0.2-0.2,0.6-0.2,0.8,0s0.2,0.6,0,0.8l-1.3,1.3l0,0L10,14c-0.2,0.1-0.2,0.4,0,0.5c0.1,0.2,0.4,0.2,0.5,0l0,0l3.8-3.8
		c0.2-0.2,0.6-0.2,0.8,0s0.2,0.6,0,0.8L14,12.7l-2.9,2.9c-0.1,0.2-0.1,0.4,0,0.5s0.4,0.1,0.5,0l0.2-0.2l0,0l2.7-2.7
		c0.2-0.2,0.6-0.2,0.8,0s0.2,0.6,0,0.8l0,0l-4.7,4.7C9.8,19.5,8.9,20.2,7.9,20.9z M20.7,12.7l-7,7c-0.9,0.9-2.2,0.9-3.1,0l0,0
		c0.2-0.2,0.4-0.4,0.6-0.6l4.7-4.7c0.5-0.5,0.5-1.3,0-1.8l0,0c-0.1-0.1-0.3-0.2-0.5-0.3l0.3-0.3c0.5-0.5,0.5-1.4,0-1.9
		c-0.1-0.1-0.3-0.2-0.5-0.3l0.5-0.5c0.5-0.5,0.5-1.3,0-1.9c-0.5-0.5-1.3-0.5-1.9,0l0,0l-0.3,0.3c-0.1-0.2-0.2-0.3-0.3-0.5
		c-0.5-0.5-1.3-0.5-1.9,0l-4.5,4.5l0.5-2l0,0c0.1-0.8-0.5-1.5-1.2-1.6C5.3,8.2,4.7,8.7,4.5,9.4l-1,3.4l-0.1-0.1
		c-0.9-0.9-0.9-2.2,0-3.1l7-7c0.9-0.9,2.2-0.9,3.1,0l0,0l2.7,2.7l-0.8,0.2c-0.2,0.1-0.3,0.3-0.3,0.5c0,0.1,0.1,0.2,0.3,0.3l2.1,0.6
		L18,8.8c0,0.2,0.3,0.3,0.5,0.3c0.1,0,0.2-0.1,0.3-0.3L19.1,8l1.6,1.6C21.5,10.5,21.5,11.9,20.7,12.7z"/>
	<path id="Path_871" fill="#03334F" d="M3.4,2.5c0.2,0,0.4-0.2,0.4-0.4l0,0V1.4C3.8,1.2,3.6,1,3.4,1C3.2,1,3.1,1.2,3,1.4l0,0v0.8
		C3,2.4,3.2,2.5,3.4,2.5L3.4,2.5z"/>
	<path id="Path_872" fill="#03334F" d="M3.4,3.3C3.2,3.3,3,3.4,3,3.7l0,0v0.8c0,0.2,0.2,0.4,0.4,0.4s0.4-0.2,0.4-0.4V3.7
		C3.8,3.4,3.6,3.3,3.4,3.3L3.4,3.3z"/>
	<path id="Path_873" fill="#03334F" d="M1.9,3.3h0.8C2.9,3.3,3,3.1,3,2.9c0-0.2-0.2-0.4-0.4-0.4H1.9c-0.2,0-0.4,0.2-0.4,0.4
		C1.5,3.1,1.7,3.3,1.9,3.3L1.9,3.3z"/>
	<path id="Path_874" fill="#03334F" d="M4.2,3.3H5c0.2,0,0.4-0.2,0.4-0.4S5.2,2.5,5,2.5H4.2C4,2.5,3.8,2.7,3.8,2.9
		C3.8,3.1,4,3.3,4.2,3.3z"/>
	<path id="Path_875" fill="#03334F" d="M19.4,19.5c-0.7,0-1.3,0.6-1.3,1.3s0.6,1.3,1.3,1.3s1.3-0.6,1.3-1.3l0,0
		C20.8,20.1,20.2,19.5,19.4,19.5z M19.4,21.4c-0.3,0-0.6-0.3-0.6-0.6s0.3-0.6,0.6-0.6s0.6,0.3,0.6,0.6l0,0
		C20,21.1,19.8,21.4,19.4,21.4L19.4,21.4z"/>
	<path id="Path_876" fill="#03334F" d="M22.3,17c-0.2,0-0.4,0.2-0.4,0.4c0,0.2,0.2,0.4,0.4,0.4c0.2,0,0.4-0.2,0.4-0.4l0,0
		C22.7,17.2,22.5,17,22.3,17z"/>
</g>
</svg>
