<svg id="Group_9745" data-name="Group 9745" xmlns="http://www.w3.org/2000/svg" xmlns:xlink="http://www.w3.org/1999/xlink" width="108.374" height="32.111" viewBox="0 0 108.374 32.111">
  <defs>
    <linearGradient id="linear-gradient" x1="0.915" y1="3.073" x2="-0.383" y2="2.403" gradientUnits="objectBoundingBox">
      <stop offset="0" stop-color="#00a0ff"/>
      <stop offset="0.007" stop-color="#00a1ff"/>
      <stop offset="0.26" stop-color="#00beff"/>
      <stop offset="0.512" stop-color="#00d2ff"/>
      <stop offset="0.76" stop-color="#00dfff"/>
      <stop offset="1" stop-color="#00e3ff"/>
    </linearGradient>
    <linearGradient id="linear-gradient-2" x1="1.076" y1="6.72" x2="-1.305" y2="6.72" gradientUnits="objectBoundingBox">
      <stop offset="0" stop-color="#ffe000"/>
      <stop offset="0.409" stop-color="#ffbd00"/>
      <stop offset="0.775" stop-color="orange"/>
      <stop offset="1" stop-color="#ff9c00"/>
    </linearGradient>
    <linearGradient id="linear-gradient-3" x1="0.862" y1="3.959" x2="-0.501" y2="2.189" gradientUnits="objectBoundingBox">
      <stop offset="0" stop-color="#ff3a44"/>
      <stop offset="1" stop-color="#c31162"/>
    </linearGradient>
    <linearGradient id="linear-gradient-4" x1="-0.188" y1="6.679" x2="0.421" y2="5.889" gradientUnits="objectBoundingBox">
      <stop offset="0" stop-color="#32a071"/>
      <stop offset="0.068" stop-color="#2da771"/>
      <stop offset="0.476" stop-color="#15cf74"/>
      <stop offset="0.801" stop-color="#06e775"/>
      <stop offset="1" stop-color="#00f076"/>
    </linearGradient>
  </defs>
  <g id="Group_9730" data-name="Group 9730">
    <rect id="Rectangle_3530" data-name="Rectangle 3530" width="108.374" height="32.111" rx="4.992" transform="translate(0 0)"/>
    <g id="Group_9727" data-name="Group 9727">
      <g id="Group_9726" data-name="Group 9726">
        <path id="Path_1016" data-name="Path 1016" d="M206.826,55.108A3.375,3.375,0,0,1,210.2,58.48V82.563a3.376,3.376,0,0,1-3.372,3.372H106.48a3.376,3.376,0,0,1-3.372-3.372V58.48a3.375,3.375,0,0,1,3.372-3.372H206.826m0-.642H106.48a4.026,4.026,0,0,0-4.014,4.014V82.563a4.026,4.026,0,0,0,4.014,4.013H206.826a4.026,4.026,0,0,0,4.014-4.013V58.48a4.026,4.026,0,0,0-4.014-4.014Z" transform="translate(-102.466 -54.466)" fill="#a6a6a6"/>
      </g>
    </g>
    <path id="Path_1017" data-name="Path 1017" d="M165.2,75.264a3.415,3.415,0,1,0,3.427,3.414A3.366,3.366,0,0,0,165.2,75.264Zm0,5.484a2.075,2.075,0,1,1,1.927-2.069A1.975,1.975,0,0,1,165.2,80.748Zm-7.476-5.484a3.414,3.414,0,1,0,3.427,3.414A3.366,3.366,0,0,0,157.721,75.264Zm0,5.484a2.075,2.075,0,1,1,1.926-2.069A1.975,1.975,0,0,1,157.721,80.748Zm-8.894-4.436v1.449h3.467a3.024,3.024,0,0,1-.789,1.823,3.548,3.548,0,0,1-2.677,1.06,3.854,3.854,0,0,1,0-7.708,3.694,3.694,0,0,1,2.613,1.035l1.022-1.022a5.053,5.053,0,0,0-3.635-1.462,5.3,5.3,0,1,0,0,10.605,4.849,4.849,0,0,0,3.7-1.487,5.232,5.232,0,0,0,1.177-4.294ZM185.2,77.437a3.174,3.174,0,0,0-2.923-2.173,3.244,3.244,0,0,0-3.22,3.414,3.341,3.341,0,0,0,3.388,3.414,3.4,3.4,0,0,0,2.845-1.513l-1.164-.776a1.95,1.95,0,0,1-1.681.944,1.738,1.738,0,0,1-1.655-1.035l4.566-1.889Zm-4.656,1.138a1.872,1.872,0,0,1,1.784-1.991,1.323,1.323,0,0,1,1.268.724Zm-3.712,3.311h1.5V71.851h-1.5Zm-2.458-5.859h-.051a2.367,2.367,0,0,0-1.8-.763,3.418,3.418,0,0,0,0,6.829,2.329,2.329,0,0,0,1.8-.776h.051v.491c0,1.306-.7,2-1.823,2a1.888,1.888,0,0,1-1.72-1.216l-1.306.543a3.254,3.254,0,0,0,3.026,2.017c1.759,0,3.246-1.035,3.246-3.557v-6.13h-1.423Zm-1.72,4.721a2.077,2.077,0,0,1,0-4.139,2.086,2.086,0,0,1,0,4.139Zm19.572-8.9h-3.589V81.886h1.5v-3.8h2.091a3.121,3.121,0,1,0,0-6.233Zm.039,4.837h-2.131v-3.44h2.131a1.72,1.72,0,1,1,0,3.44Zm9.257-1.442a2.812,2.812,0,0,0-2.672,1.536l1.33.556a1.418,1.418,0,0,1,1.368-.736,1.442,1.442,0,0,1,1.575,1.291V78a3.31,3.31,0,0,0-1.562-.388c-1.433,0-2.892.788-2.892,2.259a2.318,2.318,0,0,0,2.492,2.208,2.114,2.114,0,0,0,1.911-.981h.051v.775h1.446V78.022A2.753,2.753,0,0,0,201.522,75.246Zm-.181,5.5c-.49,0-1.175-.245-1.175-.852,0-.774.852-1.071,1.588-1.071a2.667,2.667,0,0,1,1.368.335A1.815,1.815,0,0,1,201.341,80.746Zm8.5-5.281-1.717,4.351h-.051l-1.782-4.351h-1.614l2.673,6.081-1.524,3.383h1.562l4.119-9.464Zm-13.492,6.421h1.5V71.851h-1.5Z" transform="translate(-110.499 -57.803)" fill="#fff"/>
    <g id="Group_9729" data-name="Group 9729" transform="translate(8.006 5.732)">
      <path id="Path_1018" data-name="Path 1018" d="M112.8,61.979a1.608,1.608,0,0,0-.371,1.128V80.861a1.607,1.607,0,0,0,.371,1.127l.059.058L122.8,72.1v-.235l-9.945-9.946Z" transform="translate(-112.424 -61.659)" fill="url(#linear-gradient)"/>
      <path id="Path_1019" data-name="Path 1019" d="M128.646,77.034l-3.316-3.316v-.235l3.316-3.316.074.043,3.928,2.232a1.219,1.219,0,0,1,0,2.318l-3.928,2.232Z" transform="translate(-114.954 -63.276)" fill="url(#linear-gradient-2)"/>
      <path id="Path_1020" data-name="Path 1020" d="M126.281,77.828l-3.39-3.391-10,10a1.306,1.306,0,0,0,1.668.05l11.727-6.663" transform="translate(-112.515 -64.113)" fill="url(#linear-gradient-3)"/>
      <path id="Path_1021" data-name="Path 1021" d="M126.281,68.53l-11.727-6.663a1.306,1.306,0,0,0-1.668.049l10,10Z" transform="translate(-112.515 -61.596)" fill="url(#linear-gradient-4)"/>
      <g id="Group_9728" data-name="Group 9728" transform="translate(0 13.64)">
        <path id="Path_1022" data-name="Path 1022" d="M126.207,78.562l-11.653,6.621a1.339,1.339,0,0,1-1.609.009h0l-.059.059h0l.059.058h0a1.336,1.336,0,0,0,1.609-.008l11.727-6.663Z" transform="translate(-112.515 -78.562)" opacity="0.2" style="isolation: isolate"/>
        <path id="Path_1023" data-name="Path 1023" d="M112.8,86.461a1.609,1.609,0,0,1-.371-1.128v.117a1.609,1.609,0,0,0,.371,1.128l.059-.059Z" transform="translate(-112.424 -79.889)" opacity="0.12" style="isolation: isolate"/>
      </g>
      <path id="Path_1024" data-name="Path 1024" d="M133.457,75.479l-4,2.274.074.075,3.928-2.232a1.411,1.411,0,0,0,.842-1.159h0A1.5,1.5,0,0,1,133.457,75.479Z" transform="translate(-115.763 -64.113)" opacity="0.12" style="isolation: isolate"/>
      <path id="Path_1025" data-name="Path 1025" d="M114.464,61.983l15.655,8.894a1.5,1.5,0,0,1,.842,1.042h0a1.408,1.408,0,0,0-.842-1.159l-15.655-8.9c-1.122-.638-2.04-.108-2.04,1.177v.117C112.424,61.876,113.341,61.346,114.464,61.983Z" transform="translate(-112.424 -61.596)" fill="#fff" opacity="0.25" style="isolation: isolate"/>
    </g>
  </g>
  <g id="Group_9744" data-name="Group 9744" transform="translate(33.057 5.432)">
    <g id="Group_9731" data-name="Group 9731" transform="translate(0 0.108)">
      <path id="Path_1026" data-name="Path 1026" d="M143.683,66.273V61.456h1.473a2.391,2.391,0,0,1,1.776.67,2.6,2.6,0,0,1,0,3.477,2.394,2.394,0,0,1-1.776.67Zm.618-.592h.855a1.819,1.819,0,1,0,0-3.633H144.3Z" transform="translate(-143.603 -61.376)" fill="#fff"/>
      <path id="Path_1027" data-name="Path 1027" d="M145.136,66.333h-1.553V61.356h1.553a2.482,2.482,0,0,1,1.833.693,2.683,2.683,0,0,1,0,3.591A2.48,2.48,0,0,1,145.136,66.333Zm-1.392-.161h1.392a2.33,2.33,0,0,0,1.72-.646,2.526,2.526,0,0,0,0-3.365,2.33,2.33,0,0,0-1.72-.646h-1.392Zm1.392-.431H144.2V61.948h.935a1.9,1.9,0,1,1,0,3.794Zm-.774-.161h.774a1.739,1.739,0,0,0,1.265-.455,1.74,1.74,0,0,0-1.265-3.017h-.774Z" transform="translate(-143.583 -61.356)" fill="#fff"/>
    </g>
    <g id="Group_9732" data-name="Group 9732" transform="translate(4.784 0.108)">
      <path id="Path_1028" data-name="Path 1028" d="M149.633,66.273V61.456h.618v4.817Z" transform="translate(-149.553 -61.376)" fill="#fff"/>
      <path id="Path_1029" data-name="Path 1029" d="M150.312,66.333h-.779V61.356h.779Zm-.618-.161h.457V61.517h-.457Z" transform="translate(-149.533 -61.356)" fill="#fff"/>
    </g>
    <g id="Group_9733" data-name="Group 9733" transform="translate(6.167)">
      <path id="Path_1030" data-name="Path 1030" d="M153.054,66.353a1.8,1.8,0,0,1-1.026-.342,1.585,1.585,0,0,1-.656-.962l.565-.228a1.29,1.29,0,0,0,.413.669,1.045,1.045,0,0,0,.7.273,1.131,1.131,0,0,0,.69-.211.679.679,0,0,0,.285-.576.738.738,0,0,0-.285-.622,2.955,2.955,0,0,0-.9-.407,2.409,2.409,0,0,1-.97-.522,1.087,1.087,0,0,1-.33-.817,1.2,1.2,0,0,1,.411-.9,1.5,1.5,0,0,1,1.069-.383,1.55,1.55,0,0,1,1,.306,1.418,1.418,0,0,1,.5.67l-.564.236a.834.834,0,0,0-.3-.424,1.05,1.05,0,0,0-1.224,0,.605.605,0,0,0-.252.494.563.563,0,0,0,.232.454,2.249,2.249,0,0,0,.683.333,5.967,5.967,0,0,1,.6.222,2.687,2.687,0,0,1,.483.286,1.14,1.14,0,0,1,.371.444,1.437,1.437,0,0,1,.125.616,1.326,1.326,0,0,1-.145.625,1.174,1.174,0,0,1-.383.437,1.923,1.923,0,0,1-1.08.329Z" transform="translate(-151.277 -61.242)" fill="#fff"/>
      <path id="Path_1031" data-name="Path 1031" d="M153.031,66.414a1.884,1.884,0,0,1-1.071-.356,1.673,1.673,0,0,1-.689-1.01l-.017-.068.716-.289.023.088a1.216,1.216,0,0,0,.388.629.963.963,0,0,0,.65.252,1.051,1.051,0,0,0,.642-.2.6.6,0,0,0,.253-.511.653.653,0,0,0-.254-.558,2.9,2.9,0,0,0-.88-.395,2.486,2.486,0,0,1-1-.54,1.171,1.171,0,0,1-.355-.875,1.278,1.278,0,0,1,.437-.96A1.585,1.585,0,0,1,153,61.222a1.634,1.634,0,0,1,1.046.323,1.507,1.507,0,0,1,.524.708l.022.07-.716.3-.024-.088a.765.765,0,0,0-.273-.383.97.97,0,0,0-1.124,0,.523.523,0,0,0-.222.431.482.482,0,0,0,.2.392,2.165,2.165,0,0,0,.658.319,5.876,5.876,0,0,1,.6.225,2.805,2.805,0,0,1,.5.294,1.215,1.215,0,0,1,.4.475,1.519,1.519,0,0,1,.133.65,1.417,1.417,0,0,1-.154.662,1.272,1.272,0,0,1-.41.467,2,2,0,0,1-1.125.342Zm-1.585-1.337a1.506,1.506,0,0,0,.605.848,1.731,1.731,0,0,0,1.522.248,1.8,1.8,0,0,0,.492-.235,1.1,1.1,0,0,0,.359-.408,1.254,1.254,0,0,0,.135-.588,1.366,1.366,0,0,0-.117-.581,1.07,1.07,0,0,0-.345-.413,2.648,2.648,0,0,0-.47-.278,5.759,5.759,0,0,0-.588-.219,2.3,2.3,0,0,1-.708-.347.641.641,0,0,1-.263-.517.682.682,0,0,1,.283-.557,1.13,1.13,0,0,1,1.325,0,.971.971,0,0,1,.3.379l.416-.173a1.4,1.4,0,0,0-.447-.563,1.481,1.481,0,0,0-.945-.288,1.433,1.433,0,0,0-1.015.362,1.107,1.107,0,0,0-.385.843,1,1,0,0,0,.306.76,2.362,2.362,0,0,0,.937.5,2.985,2.985,0,0,1,.929.42.816.816,0,0,1,.318.686.756.756,0,0,1-.318.64,1.207,1.207,0,0,1-.737.228,1.129,1.129,0,0,1-.756-.292,1.378,1.378,0,0,1-.413-.622Z" transform="translate(-151.254 -61.222)" fill="#fff"/>
    </g>
    <g id="Group_9734" data-name="Group 9734" transform="translate(10.36 0.108)">
      <path id="Path_1032" data-name="Path 1032" d="M157.187,66.273h-.618V61.456h1.641a1.521,1.521,0,0,1,1.06.407,1.4,1.4,0,0,1,0,2.052,1.521,1.521,0,0,1-1.06.407h-1.023Zm0-2.543h1.036a.8.8,0,0,0,.625-.262.828.828,0,0,0,0-1.157.8.8,0,0,0-.625-.263h-1.036Z" transform="translate(-156.489 -61.376)" fill="#fff"/>
      <path id="Path_1033" data-name="Path 1033" d="M157.248,66.333h-.779V61.356h1.721a1.607,1.607,0,0,1,1.114.428,1.481,1.481,0,0,1,0,2.171,1.607,1.607,0,0,1-1.114.428h-.942Zm-.618-.161h.457V64.221h1.1a1.446,1.446,0,0,0,1-.386,1.317,1.317,0,0,0,0-1.933,1.446,1.446,0,0,0-1-.386H156.63ZM158.2,63.79h-1.117V61.948H158.2a.88.88,0,0,1,.686.289.91.91,0,0,1,0,1.265A.881.881,0,0,1,158.2,63.79Zm-.956-.16h.956a.717.717,0,0,0,.566-.236.749.749,0,0,0,0-1.05.717.717,0,0,0-.566-.236h-.956Z" transform="translate(-156.469 -61.356)" fill="#fff"/>
    </g>
    <g id="Group_9735" data-name="Group 9735" transform="translate(13.985)">
      <path id="Path_1034" data-name="Path 1034" d="M165.32,65.624a2.5,2.5,0,0,1-3.532,0,2.6,2.6,0,0,1,0-3.572,2.493,2.493,0,0,1,3.529,0,2.6,2.6,0,0,1,0,3.569Zm-3.075-.4a1.853,1.853,0,0,0,2.617,0,2.052,2.052,0,0,0,0-2.765,1.851,1.851,0,0,0-2.617,0,2.055,2.055,0,0,0,0,2.765Z" transform="translate(-160.998 -61.242)" fill="#fff"/>
      <path id="Path_1035" data-name="Path 1035" d="M163.534,66.414a2.451,2.451,0,0,1-1.823-.754,2.682,2.682,0,0,1,0-3.684,2.574,2.574,0,0,1,3.644,0,2.674,2.674,0,0,1,0,3.681h0A2.451,2.451,0,0,1,163.534,66.414Zm0-5.031a2.29,2.29,0,0,0-1.708.706,2.52,2.52,0,0,0,0,3.459,2.421,2.421,0,0,0,3.416,0h0a2.514,2.514,0,0,0,0-3.456A2.292,2.292,0,0,0,163.534,61.383Zm0,4.44a1.854,1.854,0,0,1-1.366-.565h0a2.135,2.135,0,0,1,0-2.878,1.932,1.932,0,0,1,2.731,0,2.133,2.133,0,0,1,0,2.878A1.849,1.849,0,0,1,163.534,65.822Zm-1.251-.678a1.772,1.772,0,0,0,2.5,0,1.973,1.973,0,0,0,0-2.652,1.77,1.77,0,0,0-2.5,0,1.973,1.973,0,0,0,0,2.652Z" transform="translate(-160.978 -61.222)" fill="#fff"/>
    </g>
    <g id="Group_9736" data-name="Group 9736" transform="translate(19.805 0.108)">
      <path id="Path_1036" data-name="Path 1036" d="M168.317,66.273V61.456h.753l2.34,3.747h.027l-.027-.928V61.456h.62v4.817h-.646l-2.449-3.929h-.027l.027.929v3Z" transform="translate(-168.237 -61.376)" fill="#fff"/>
      <path id="Path_1037" data-name="Path 1037" d="M172.091,66.333h-.77l-.024-.039-2.32-3.721.02.676v3.083h-.779V61.356h.878l2.235,3.578-.019-.677v-2.9h.779Zm-.681-.161h.521V61.517h-.459v2.738l.029,1.008h-.154l-2.341-3.747h-.629v4.656h.458v-2.92l-.029-1.008h.154l.024.038Z" transform="translate(-168.217 -61.356)" fill="#fff"/>
    </g>
    <g id="Group_9737" data-name="Group 9737" transform="translate(24.622 0.108)">
      <path id="Path_1038" data-name="Path 1038" d="M174.308,66.273V61.456h.618v4.817Z" transform="translate(-174.228 -61.376)" fill="#fff"/>
      <path id="Path_1039" data-name="Path 1039" d="M174.986,66.333h-.778V61.356h.778Zm-.618-.161h.458V61.517h-.458Z" transform="translate(-174.208 -61.356)" fill="#fff"/>
    </g>
    <g id="Group_9738" data-name="Group 9738" transform="translate(26.343 0.108)">
      <path id="Path_1040" data-name="Path 1040" d="M176.449,66.273V61.456h1.742a1.413,1.413,0,0,1,.978.373,1.209,1.209,0,0,1,.414.938,1.048,1.048,0,0,1-.178.605,1.112,1.112,0,0,1-.474.4V63.8a1.229,1.229,0,0,1,.585.417,1.092,1.092,0,0,1,.229.687,1.262,1.262,0,0,1-.434.982,1.483,1.483,0,0,1-1.026.391Zm.618-2.752h1.124a.723.723,0,0,0,.562-.232.718.718,0,0,0,.006-1.012.689.689,0,0,0-.54-.229h-1.151Zm0,2.16h1.245a.738.738,0,0,0,.578-.25.8.8,0,0,0,.222-.544.809.809,0,0,0-.827-.787h-1.218Z" transform="translate(-176.369 -61.376)" fill="#fff"/>
      <path id="Path_1041" data-name="Path 1041" d="M178.266,66.333h-1.917V61.356h1.823a1.5,1.5,0,0,1,1.033.394,1.3,1.3,0,0,1,.44,1,1.131,1.131,0,0,1-.192.65,1.193,1.193,0,0,1-.379.358,1.292,1.292,0,0,1,.486.389,1.176,1.176,0,0,1,.246.736,1.345,1.345,0,0,1-.461,1.041A1.564,1.564,0,0,1,178.266,66.333Zm-1.757-.161h1.757a1.415,1.415,0,0,0,.973-.37,1.181,1.181,0,0,0,.408-.922,1.018,1.018,0,0,0-.213-.638,1.154,1.154,0,0,0-.548-.39l-.054-.018V63.7l.047-.021a1.043,1.043,0,0,0,.441-.37.971.971,0,0,0,.166-.56,1.123,1.123,0,0,0-.388-.879,1.341,1.341,0,0,0-.925-.352h-1.663Zm1.784-.431h-1.325V64h1.3a.89.89,0,0,1,.908.867.881.881,0,0,1-.243.6A.817.817,0,0,1,178.293,65.742Zm-1.165-.161h1.165a.658.658,0,0,0,.519-.223.716.716,0,0,0,.2-.491.732.732,0,0,0-.748-.707h-1.138Zm1.044-2h-1.2V61.948H178.2a.771.771,0,0,1,.6.256.8.8,0,0,1-.006,1.12A.8.8,0,0,1,178.172,63.581Zm-1.044-.161h1.044a.64.64,0,0,0,.5-.206.639.639,0,0,0,.006-.9.609.609,0,0,0-.481-.2h-1.071Z" transform="translate(-176.349 -61.356)" fill="#fff"/>
    </g>
    <g id="Group_9739" data-name="Group 9739" transform="translate(30.474 0.108)">
      <path id="Path_1042" data-name="Path 1042" d="M181.587,66.273V61.456h.618v4.225h2.085v.592Z" transform="translate(-181.507 -61.376)" fill="#fff"/>
      <path id="Path_1043" data-name="Path 1043" d="M184.351,66.333h-2.864V61.356h.778v4.225h2.085Zm-2.7-.161h2.544v-.431h-2.085V61.517h-.459Z" transform="translate(-181.487 -61.356)" fill="#fff"/>
    </g>
    <g id="Group_9740" data-name="Group 9740" transform="translate(33.958 0.108)">
      <path id="Path_1044" data-name="Path 1044" d="M188.733,62.048h-2.194v1.527h1.979v.579h-1.979v1.528h2.194v.592h-2.812V61.456h2.812Z" transform="translate(-185.841 -61.376)" fill="#fff"/>
      <path id="Path_1045" data-name="Path 1045" d="M188.793,66.333h-2.972V61.356h2.972v.753H186.6v1.366h1.978v.74H186.6v1.367h2.193Zm-2.812-.161h2.652v-.431H186.44V64.053h1.978v-.418H186.44V61.948h2.193v-.431h-2.652Z" transform="translate(-185.821 -61.356)" fill="#fff"/>
    </g>
    <g id="Group_9741" data-name="Group 9741" transform="translate(38.814)">
      <path id="Path_1046" data-name="Path 1046" d="M193.661,66.353a1.8,1.8,0,0,1-1.026-.342,1.585,1.585,0,0,1-.656-.962l.565-.228a1.29,1.29,0,0,0,.413.669,1.045,1.045,0,0,0,.7.273,1.131,1.131,0,0,0,.69-.211.679.679,0,0,0,.285-.576.738.738,0,0,0-.285-.622,2.955,2.955,0,0,0-.9-.407,2.409,2.409,0,0,1-.97-.522,1.087,1.087,0,0,1-.33-.817,1.193,1.193,0,0,1,.411-.9,1.5,1.5,0,0,1,1.069-.383,1.549,1.549,0,0,1,1,.306,1.418,1.418,0,0,1,.5.67l-.564.236a.833.833,0,0,0-.3-.424,1.05,1.05,0,0,0-1.224,0,.605.605,0,0,0-.252.494.563.563,0,0,0,.232.454,2.249,2.249,0,0,0,.683.333,5.969,5.969,0,0,1,.6.222,2.688,2.688,0,0,1,.483.286,1.141,1.141,0,0,1,.371.444,1.437,1.437,0,0,1,.125.616,1.327,1.327,0,0,1-.145.625,1.177,1.177,0,0,1-.384.437,1.918,1.918,0,0,1-1.079.329Z" transform="translate(-191.884 -61.242)" fill="#fff"/>
      <path id="Path_1047" data-name="Path 1047" d="M193.638,66.414a1.884,1.884,0,0,1-1.071-.356,1.668,1.668,0,0,1-.688-1.01l-.018-.068.716-.289.023.088a1.22,1.22,0,0,0,.388.629.963.963,0,0,0,.651.252,1.049,1.049,0,0,0,.642-.2.6.6,0,0,0,.253-.511.653.653,0,0,0-.254-.558A2.9,2.9,0,0,0,193.4,64a2.486,2.486,0,0,1-1-.54,1.174,1.174,0,0,1-.355-.875,1.278,1.278,0,0,1,.437-.96,1.583,1.583,0,0,1,1.124-.405,1.636,1.636,0,0,1,1.046.323,1.507,1.507,0,0,1,.524.708l.022.07-.717.3-.023-.088a.757.757,0,0,0-.273-.383.867.867,0,0,0-.565-.177.876.876,0,0,0-.559.182.525.525,0,0,0-.222.431.483.483,0,0,0,.2.392,2.156,2.156,0,0,0,.658.319,5.805,5.805,0,0,1,.6.225,2.835,2.835,0,0,1,.5.294,1.222,1.222,0,0,1,.4.475,1.507,1.507,0,0,1,.132.65,1.407,1.407,0,0,1-.153.662,1.266,1.266,0,0,1-.411.467,2,2,0,0,1-.535.256A2.025,2.025,0,0,1,193.638,66.414Zm-1.586-1.337a1.507,1.507,0,0,0,.606.848,1.731,1.731,0,0,0,1.522.248,1.814,1.814,0,0,0,.493-.235,1.105,1.105,0,0,0,.358-.408,1.245,1.245,0,0,0,.135-.588,1.354,1.354,0,0,0-.117-.581,1.061,1.061,0,0,0-.344-.413,2.647,2.647,0,0,0-.47-.278,5.618,5.618,0,0,0-.588-.219,2.311,2.311,0,0,1-.708-.347.643.643,0,0,1-.262-.517.682.682,0,0,1,.283-.557,1.129,1.129,0,0,1,1.325,0,.966.966,0,0,1,.3.379l.415-.173a1.4,1.4,0,0,0-.447-.563,1.483,1.483,0,0,0-.945-.288,1.431,1.431,0,0,0-1.015.362,1.108,1.108,0,0,0-.386.843,1,1,0,0,0,.306.76,2.36,2.36,0,0,0,.937.5,2.979,2.979,0,0,1,.929.42.815.815,0,0,1,.317.686.755.755,0,0,1-.318.64,1.207,1.207,0,0,1-.737.228,1.129,1.129,0,0,1-.756-.292,1.377,1.377,0,0,1-.413-.622Z" transform="translate(-191.861 -61.222)" fill="#fff"/>
    </g>
    <g id="Group_9742" data-name="Group 9742" transform="translate(42.898 0.108)">
      <path id="Path_1048" data-name="Path 1048" d="M198.823,66.38a1.69,1.69,0,0,1-1.289-.524,1.922,1.922,0,0,1-.494-1.372V61.456h.618V64.51a1.378,1.378,0,0,0,.3.925,1.235,1.235,0,0,0,1.729,0,1.378,1.378,0,0,0,.3-.925V61.456h.62v3.027a1.947,1.947,0,0,1-.482,1.376A1.683,1.683,0,0,1,198.823,66.38Z" transform="translate(-196.961 -61.376)" fill="#fff"/>
      <path id="Path_1049" data-name="Path 1049" d="M198.8,66.44a1.777,1.777,0,0,1-1.347-.549,2.008,2.008,0,0,1-.516-1.428V61.356h.779v3.135a1.315,1.315,0,0,0,.281.873.984.984,0,0,0,.8.324,1,1,0,0,0,.8-.324,1.315,1.315,0,0,0,.281-.873V61.356h.779v3.107a2.031,2.031,0,0,1-.5,1.43A1.767,1.767,0,0,1,198.8,66.44Zm-1.7-4.924v2.947a1.852,1.852,0,0,0,.473,1.318,1.787,1.787,0,0,0,2.473,0,1.88,1.88,0,0,0,.46-1.321V61.517h-.459v2.974a1.465,1.465,0,0,1-.318.977,1.314,1.314,0,0,1-1.851,0,1.46,1.46,0,0,1-.318-.977V61.517Z" transform="translate(-196.941 -61.356)" fill="#fff"/>
    </g>
    <g id="Group_9743" data-name="Group 9743" transform="translate(47.46 0.108)">
      <path id="Path_1050" data-name="Path 1050" d="M202.714,66.273V61.456h1.642a1.518,1.518,0,0,1,1.059.407,1.386,1.386,0,0,1,.118,1.917,1.427,1.427,0,0,1-.821.487l-.014.02,1.352,1.958v.027h-.733l-1.3-1.951h-.687v1.951Zm.618-2.529h1a.912.912,0,0,0,.636-.243.791.791,0,0,0,.265-.612.846.846,0,0,0-.235-.578.8.8,0,0,0-.625-.263h-1.037Z" transform="translate(-202.634 -61.376)" fill="#fff"/>
      <path id="Path_1051" data-name="Path 1051" d="M206.111,66.333h-.856l-.024-.036-1.274-1.915h-.564v1.951h-.778V61.356h1.721a1.608,1.608,0,0,1,1.114.428,1.467,1.467,0,0,1,.125,2.029,1.52,1.52,0,0,1-.773.492l1.31,1.9Zm-.77-.161h.555l-1.314-1.9.062-.092.032-.007a1.352,1.352,0,0,0,.776-.461,1.258,1.258,0,0,0,.312-.839,1.238,1.238,0,0,0-.422-.966,1.447,1.447,0,0,0-1-.386h-1.561v4.656h.458V64.221h.81l.023.036ZM204.309,63.8h-1.076V61.948h1.116a.878.878,0,0,1,.686.289.929.929,0,0,1,.256.632.871.871,0,0,1-.292.671A.994.994,0,0,1,204.309,63.8Zm-.916-.161h.916a.825.825,0,0,0,.581-.221.709.709,0,0,0,.24-.553.767.767,0,0,0-.215-.525.719.719,0,0,0-.567-.236h-.956Z" transform="translate(-202.615 -61.356)" fill="#fff"/>
    </g>
  </g>
</svg>
