<?xml version="1.0" encoding="utf-8"?>
<!-- Generator: Adobe Illustrator 22.0.0, SVG Export Plug-In . SVG Version: 6.00 Build 0)  -->
<svg version="1.1" id="icon_restauration" xmlns="http://www.w3.org/2000/svg" xmlns:xlink="http://www.w3.org/1999/xlink" x="0px"
	 y="0px" viewBox="0 0 24 24" enable-background="new 0 0 24 24" xml:space="preserve">
<g id="_023---Cuisine">
	<path id="Shape" fill="#03334F" d="M11.1,10.1c0.3-0.2,0.3-0.5,0.2-0.8C11.1,9,10.8,9,10.5,9.1l0,0c-0.7,0.5-1.3,1-1.9,1.6
		c-1.8,1.8-3,4.1-3.5,6.6C5,17.7,5.2,18,5.5,18s0.6-0.1,0.6-0.4c0.4-2.3,1.5-4.4,3.2-6.1C9.9,11,10.5,10.5,11.1,10.1L11.1,10.1z"/>
	<path id="Shape-2" fill="#03334F" d="M21.9,20.5c-0.2-4.7-3.6-8.6-8.3-9.4c0-0.1,0.1-0.2,0.1-0.3c0.5,0.1,0.9-0.2,1.1-0.7
		c0.3-0.7,0.4-1.4,0.4-2.2c0-0.4-0.2-0.9-0.4-1.2l3.7,1.8c0.2,0.1,0.3,0.1,0.5,0.1c0.7,0,1.2-0.6,1.2-1.2c0-0.5-0.3-0.9-0.7-1.1l0,0
		c0.5-0.4,0.6-1.2,0.2-1.7c-0.2-0.2-0.4-0.3-0.7-0.4c-2.4-0.6-4.8-1.1-6.8-1.4C9.7,1.6,7.5,1,6.1,1C4.5,1,2.9,1.3,1.4,1.9
		C1.2,2.1,1,2.3,1,2.6v4.7C1,7.7,1.3,8,1.7,8C1.9,8.1,2,8,2.1,8l2.6-1.4c0.6-0.3,1.4-0.3,1.9,0.1C7,7,7.3,7.4,7.6,7.8
		c0.4,0.6,0.8,1.3,1.3,2C9,9.9,9.1,10,9.2,10.1l0.1,0.2c0.2,0.3,0.6,0.5,1,0.5l0,0c0,0.1,0.1,0.2,0.1,0.2c-4.6,0.8-8.1,4.7-8.3,9.4
		C1.5,20.5,1,21.1,1,21.7C1,22.4,1.6,23,2.3,23h19.4c0.7,0,1.3-0.6,1.3-1.3C23,21.1,22.5,20.5,21.9,20.5L21.9,20.5z M11.1,8.6
		c-0.3-0.5-0.3-1.1-0.2-1.6c0-0.1,0.1-0.1,0.1-0.2c0.4-0.1,0.8,0,1.1,0.2C12.6,7.3,13,7.7,13,8.2c0,0.1,0,0.3-0.1,0.4
		C12.4,8.3,11.7,8.3,11.1,8.6L11.1,8.6z M19.4,5.4c0,0.3-0.3,0.4-0.5,0.4c-1.2-0.7-2.5-1.3-3.7-1.8c1.2,0.2,2.5,0.5,3.8,0.8
		C19.3,4.9,19.5,5.1,19.4,5.4L19.4,5.4z M9.9,9.9L9.8,9.7C9.7,9.6,9.6,9.5,9.5,9.3C9.1,8.7,8.7,8,8.3,7.4C8,6.9,7.6,6.4,7.1,6.1
		C6.3,5.5,5.3,5.4,4.4,5.9L1.7,7.3V2.6C3.1,2,4.6,1.7,6.1,1.7c1.4,0,3.7,0.7,6.8,2c2,0.9,4.3,2,6.5,3.2c0.2,0.1,0.3,0.4,0.2,0.7
		c-0.1,0.2-0.4,0.3-0.7,0.2l-5-2.4c-0.2-0.1-0.3,0-0.4,0.1c-0.1,0.1-0.1,0.3,0,0.5c0.5,0.5,0.9,1.2,1,2c0,0.6-0.2,1.2-0.4,1.8
		C14,10,13.8,10.1,13.6,10c0,0,0,0-0.1,0l0,0c-0.1-0.1-0.2-0.2-0.2-0.3V9.6V9.5c0.1-0.4,0.2-0.8,0.2-1.2c-0.1-0.8-0.6-1.5-1.3-1.8
		c-0.5-0.3-1.1-0.4-1.7-0.2C10.2,6.4,10,6.6,10,6.9c-0.2,0.8-0.1,1.6,0.3,2.4c-0.2,0.3-0.3,0.6-0.3,1C10.1,10,10,10,9.9,9.9z
		 M10.9,10.3c0-0.1,0-0.1,0-0.2C10.9,9.5,11.4,9,12,9l0,0c0.3,0,0.6,0.1,0.8,0.3c-0.1,0.4,0,0.8,0.3,1c0,0.2-0.1,0.4-0.3,0.5
		c-0.3,0-0.5,0-0.8,0s-0.5,0-0.8,0C11.1,10.8,11,10.6,10.9,10.3L10.9,10.3z M22.1,22.1c-0.1,0.1-0.2,0.2-0.4,0.2H2.3
		c-0.3,0-0.5-0.2-0.5-0.5s0.2-0.5,0.5-0.5h2.4c0.2,0,0.4-0.1,0.4-0.4c0-0.2-0.1-0.4-0.4-0.4l0,0H2.9c0.2-5.1,4.5-9,9.5-8.8
		c4.8,0.2,8.6,4,8.8,8.8H6.5c-0.2,0-0.4,0.1-0.4,0.4c0,0.2,0.1,0.4,0.4,0.4l0,0h15.2c0.3,0,0.6,0.2,0.6,0.5
		C22.3,21.9,22.2,22,22.1,22.1z"/>
	<path id="Shape-3" fill="#03334F" d="M5.9,3.4C5.1,3.6,4.3,3.8,3.6,4C3.4,4.1,3.2,4.3,3.2,4.5V7c0,0.3,0.2,0.5,0.5,0.5
		S4.2,7.3,4.2,7V4.9C4.8,4.7,5.4,4.6,6,4.5c0.3,0,0.5-0.3,0.5-0.6C6.5,3.6,6.3,3.4,5.9,3.4L5.9,3.4L5.9,3.4z"/>
	<ellipse id="Oval" fill="#03334F" cx="8.8" cy="13.5" rx="0.5" ry="0.5"/>
</g>
</svg>
