<?xml version="1.0" encoding="utf-8"?>
<!-- Generator: Adobe Illustrator 22.0.0, SVG Export Plug-In . SVG Version: 6.00 Build 0)  -->
<svg version="1.1" id="Layer_1" xmlns="http://www.w3.org/2000/svg" xmlns:xlink="http://www.w3.org/1999/xlink" x="0px" y="0px"
	 viewBox="0 0 24 24" enable-background="new 0 0 24 24" xml:space="preserve">
<path id="Path_985" d="M23,6.4c0-0.1-0.1-0.2-0.1-0.3c0,0,0.3,0.3-4.9-4.9C17.8,1.1,17.7,1,17.5,1H2.9C1.9,1,1,1.9,1,2.9v18.1
	C1,22.1,1.9,23,2.9,23h18.1c1.1,0,1.9-0.9,1.9-1.9C23,5.4,23,6.5,23,6.4L23,6.4z M15.8,2.3v4.2c0,0.4-0.3,0.6-0.6,0.6h-0.8V2.3H15.8
	z M13.1,2.3v4.9h-6c-0.4,0-0.6-0.3-0.6-0.6V2.3H13.1z M15.8,14.8H6.5V14c0-0.4,0.3-0.6,0.6-0.6h8.1c0.4,0,0.6,0.3,0.6,0.6L15.8,14.8
	z M6.5,21.7v-5.6h9.4v5.6L6.5,21.7z M21.7,21.1c0,0.4-0.3,0.6-0.6,0.6h-4V14c0-1.1-0.9-1.9-1.9-1.9H7.1C6,12,5.2,12.9,5.2,14v7.7
	H2.9c-0.4,0-0.6-0.3-0.6-0.6V2.9c0-0.4,0.3-0.6,0.6-0.6h2.2v4.2c0,1.1,0.9,1.9,1.9,1.9h8.1c1.1,0,1.9-0.9,1.9-1.9V2.3h0.1l4.5,4.5
	L21.7,21.1z"/>
</svg>
