<?xml version="1.0" encoding="utf-8"?>
<!-- Generator: Adobe Illustrator 22.0.0, SVG Export Plug-In . SVG Version: 6.00 Build 0)  -->
<svg version="1.1" id="Layer_1" xmlns="http://www.w3.org/2000/svg" xmlns:xlink="http://www.w3.org/1999/xlink" x="0px" y="0px"
	 viewBox="0 0 24 24" enable-background="new 0 0 24 24" xml:space="preserve">
<g>
	<path id="Path_1004" d="M10.1,2.9h12.4C22.8,3,23,2.7,23,2.5C23,2.2,22.8,2,22.6,2c0,0,0,0-0.1,0H10.1C9.8,2,9.6,2.2,9.6,2.5
		C9.7,2.7,9.8,2.9,10.1,2.9L10.1,2.9z"/>
	<path id="Path_1005" d="M22.5,9.6H10.1c-0.3,0-0.5,0.2-0.5,0.5c0,0.2,0.2,0.4,0.5,0.5h12.4c0.3,0,0.5-0.2,0.5-0.5
		C23,9.9,22.8,9.6,22.5,9.6C22.5,9.6,22.5,9.6,22.5,9.6z"/>
	<path id="Path_1006" d="M10.1,6.8h8.6c0.3,0,0.5-0.2,0.5-0.5c0-0.3-0.2-0.5-0.5-0.5c0,0,0,0-0.1,0h-8.6C9.8,5.8,9.6,6,9.6,6.2
		C9.6,6.5,9.8,6.7,10.1,6.8C10.1,6.8,10.1,6.8,10.1,6.8z"/>
	<path id="Path_1007" d="M18.7,21.1h-8.6c-0.3,0-0.5,0.2-0.5,0.5c0,0.2,0.2,0.4,0.5,0.5h8.6c0.3,0,0.5-0.2,0.5-0.5
		C19.1,21.3,18.9,21.1,18.7,21.1z"/>
	<path id="Path_1008" d="M22.5,17.3H10.1c-0.3,0-0.5,0.2-0.5,0.5c0,0.3,0.2,0.5,0.5,0.5c0,0,0,0,0.1,0h12.4c0.3,0,0.5-0.2,0.5-0.5
		C23,17.5,22.8,17.3,22.5,17.3C22.5,17.3,22.5,17.3,22.5,17.3z"/>
	<path id="Path_1009" d="M10.1,14.4h8.6c0.3,0,0.5-0.2,0.5-0.5c0-0.3-0.2-0.5-0.5-0.5c0,0,0,0-0.1,0h-8.6c-0.3,0-0.5,0.2-0.5,0.5
		C9.6,14.1,9.8,14.4,10.1,14.4C10.1,14.4,10.1,14.4,10.1,14.4z"/>
	<path id="Path_1010" d="M6.9,4.7c0.2,0.2,0.5,0.2,0.7,0c0.2-0.2,0.2-0.5,0-0.7c0,0,0,0,0,0L4.7,1.2C4.6,1.1,4.5,1,4.4,1l0,0
		c0,0-0.1,0-0.1,0l0,0C4.2,1,4.1,1.1,4,1.1l0,0L1.2,4C1,4.2,1,4.5,1.1,4.7s0.5,0.2,0.7,0c0,0,0,0,0,0l2.1-2.1v18.7l-2-2
		c-0.2-0.2-0.5-0.2-0.7,0C1,19.5,1,19.8,1.2,20L4,22.8l0,0C4.1,22.9,4.2,23,4.3,23l0,0h0.1h0c0.1,0,0.2-0.1,0.3-0.1L7.6,20
		c0.2-0.2,0.2-0.5,0-0.7c-0.2-0.2-0.5-0.2-0.7,0c0,0,0,0,0,0l-2,2.1V2.7L6.9,4.7z"/>
</g>
</svg>
