<?xml version="1.0" encoding="utf-8"?>
<!-- Generator: Adobe Illustrator 22.0.0, SVG Export Plug-In . SVG Version: 6.00 Build 0)  -->
<svg version="1.1" id="Layer_1" xmlns="http://www.w3.org/2000/svg" xmlns:xlink="http://www.w3.org/1999/xlink" x="0px" y="0px"
	 viewBox="0 0 24 24" enable-background="new 0 0 24 24" xml:space="preserve">
<g id="Group_9723" transform="translate(0 0)">
	<path id="Path_1011" d="M20.7,8.8h-0.8V2.4c0-0.2-0.2-0.4-0.4-0.4c-0.1,0-0.2,0-0.3,0.1l-1.2,1c-0.6,0.5-1.3,1-2,1.5
		c-2.6,1.7-5.7,2.6-8.9,2.6H5c-2.2,0-4,1.7-4,3.9s1.7,4,3.9,4H5h1v6.6c0,0.2,0.2,0.4,0.4,0.4H9c0.9,0,1.6-0.7,1.6-1.6v-0.8h0.7
		c0.9,0,1.6-0.8,1.6-1.6c0-0.9-0.7-1.5-1.6-1.6h-0.7v-1.1c2.7,0.6,5.3,1.9,7.4,3.7l1.2,1c0.2,0.2,0.5,0.1,0.6,0s0.1-0.2,0.1-0.3
		v-6.4h0.8c1.3,0,2.3-1,2.3-2.3S22,8.8,20.7,8.8L20.7,8.8z M1.9,11.1C2,9.4,3.3,8,5,8h1v6.1H5C3.3,14.1,2,12.8,1.9,11.1z M11.3,17.4
		c0.4,0,0.7,0.3,0.7,0.7c0,0.4-0.3,0.7-0.7,0.7h-0.7v-1.4L11.3,17.4z M9.8,20.5c0,0.4-0.3,0.7-0.7,0.7H7V15h0.2
		c0.9,0,1.7,0.1,2.6,0.2L9.8,20.5z M19,18.8l-0.4-0.4c-0.6-0.5-1.2-1-1.9-1.4v-3.7c0-0.2-0.2-0.4-0.4-0.4c-0.2,0-0.4,0.2-0.4,0.4
		v3.1c-2.6-1.5-5.6-2.3-8.6-2.3H6.9V8h0.2c3,0,6-0.8,8.6-2.3v3.6c0,0.2,0.2,0.4,0.4,0.4c0.2,0,0.4-0.2,0.4-0.4V5.2
		c0.7-0.4,1.3-0.9,1.9-1.4L19,3.4V18.8z M20.7,12.5h-0.8V9.7h0.8c0.8,0,1.4,0.6,1.4,1.4C22.1,11.8,21.5,12.5,20.7,12.5z"/>
	<path id="Path_1012" d="M16.7,11.1c-0.1-0.2-0.4-0.3-0.6-0.2c-0.2,0.1-0.3,0.4-0.2,0.6c0.1,0.2,0.4,0.3,0.6,0.2c0,0,0,0,0.1,0
		C16.7,11.6,16.8,11.3,16.7,11.1z"/>
</g>
</svg>
