<?xml version="1.0" encoding="utf-8"?>
<!-- Generator: Adobe Illustrator 22.0.0, SVG Export Plug-In . SVG Version: 6.00 Build 0)  -->
<svg version="1.1" id="Group_10024" xmlns="http://www.w3.org/2000/svg" xmlns:xlink="http://www.w3.org/1999/xlink" x="0px"
	 y="0px" viewBox="0 0 24 24" enable-background="new 0 0 24 24" xml:space="preserve">
<g>
	<path id="Path_1119" fill="#1EC85A" d="M12,23L12,23C5.9,23,1,18.1,1,12l0,0C1,5.9,5.9,1,12,1l0,0c6.1,0,11,4.9,11,11c0,0,0,0,0,0
		l0,0C23,18.1,18.1,23,12,23C12,23,12,23,12,23z"/>
	<path id="Path_1120" fill="#FFFFFF" d="M12,5.6c-3.6,0-6.4,2.9-6.4,6.4c0,3.6,2.9,6.4,6.4,6.4s6.4-2.9,6.4-6.4c0,0,0,0,0,0
		C18.4,8.4,15.6,5.6,12,5.6z M15,14.9c-0.1,0.2-0.3,0.2-0.5,0.1c0,0,0,0,0,0c-1.5-0.9-3.4-1.1-5.7-0.6c-0.2,0.1-0.4-0.1-0.5-0.3
		c-0.1-0.2,0.1-0.4,0.3-0.5c0,0,0,0,0,0c2.4-0.5,4.6-0.3,6.2,0.7C15,14.4,15.1,14.6,15,14.9C15,14.8,15,14.9,15,14.9z M15.7,13.1
		c-0.1,0.2-0.4,0.3-0.7,0.2c0,0,0,0,0,0c-1.9-1.1-4.3-1.4-6.4-0.7c-0.3,0.1-0.5-0.1-0.6-0.3c-0.1-0.3,0.1-0.5,0.3-0.6
		c2.4-0.7,5-0.4,7.2,0.9C15.8,12.6,15.9,12.9,15.7,13.1C15.7,13.1,15.7,13.1,15.7,13.1L15.7,13.1z M15.8,11.3
		c-2.1-1.2-5.5-1.4-7.5-0.7c-0.3,0.1-0.6-0.1-0.7-0.4C7.5,9.9,7.7,9.5,8,9.4l0,0c2.3-0.7,6-0.5,8.4,0.9c0.3,0.2,0.4,0.5,0.2,0.8
		C16.4,11.4,16.1,11.4,15.8,11.3L15.8,11.3z"/>
</g>
</svg>
