<?xml version="1.0" encoding="utf-8"?>
<!-- Generator: Adobe Illustrator 22.0.0, SVG Export Plug-In . SVG Version: 6.00 Build 0)  -->
<svg version="1.1" id="Group_10020" xmlns="http://www.w3.org/2000/svg" xmlns:xlink="http://www.w3.org/1999/xlink" x="0px"
	 y="0px" viewBox="0 0 24 24" enable-background="new 0 0 24 24" xml:space="preserve">
<g>
	<path id="Path_1114" fill="#29A9E1" d="M12,23L12,23C5.9,23,1,18.1,1,12l0,0C1,5.9,5.9,1,12,1l0,0c6.1,0,11,4.9,11,11l0,0
		C23,18.1,18.1,23,12,23z"/>
	<path id="Path_1115" fill="#FFFFFF" d="M6.1,15.7c3.2,2,7.4,1.1,9.4-2.1c0.8-1.2,1.1-2.6,1.1-4c0.5-0.3,0.9-0.8,1.2-1.2
		c-0.4,0.2-0.9,0.3-1.4,0.4C17,8.4,17.4,8,17.5,7.4c-0.5,0.3-1,0.5-1.5,0.6c-0.9-1-2.4-1-3.4-0.1c-0.6,0.6-0.9,1.5-0.7,2.3
		c-1.9-0.1-3.7-1-5-2.5c-0.6,1.1-0.3,2.5,0.7,3.2c-0.4,0-0.8-0.1-1.1-0.3c0,1.2,0.8,2.2,1.9,2.4c-0.4,0.1-0.7,0.1-1.1,0
		c0.3,1,1.2,1.7,2.2,1.7C8.7,15.5,7.4,15.8,6.1,15.7z"/>
</g>
</svg>
