<?xml version="1.0" encoding="utf-8"?>
<!-- Generator: Adobe Illustrator 22.0.0, SVG Export Plug-In . SVG Version: 6.00 Build 0)  -->
<svg version="1.1" id="Layer_1" xmlns="http://www.w3.org/2000/svg" xmlns:xlink="http://www.w3.org/1999/xlink" x="0px" y="0px"
	 viewBox="0 0 24 24" enable-background="new 0 0 24 24" xml:space="preserve">
<g id="alarm" transform="translate(0)">
	<path id="Path_892" d="M19,22.4l-1.1-3.2c-0.1-0.2-0.2-0.3-0.4-0.3h-0.1v-6.2c0-3-2.4-5.5-5.4-5.5c-3,0-5.5,2.4-5.5,5.4
		c0,0,0,0.1,0,0.1V19H6.5c-0.2,0-0.3,0.1-0.4,0.3L5,22.4c-0.1,0.2,0,0.5,0.3,0.5c0,0,0.1,0,0.1,0h13.2c0.2,0,0.4-0.2,0.4-0.4
		C19,22.5,19,22.5,19,22.4L19,22.4z M7.4,12.7c0-2.5,2.1-4.6,4.6-4.6c2.5,0,4.6,2.1,4.6,4.6V19H7.4V12.7z M6,22.1l0.8-2.3h10.4
		l0.8,2.3H6z"/>
	<path id="Path_893" d="M12,1c-0.2,0-0.4,0.2-0.4,0.4V4c0,0.2,0.2,0.4,0.4,0.4c0.2,0,0.4-0.2,0.4-0.4V1.4C12.4,1.2,12.2,1,12,1
		C12,1,12,1,12,1z"/>
	<path id="Path_894" d="M12.3,5.4c-0.2-0.2-0.4-0.2-0.6,0c-0.2,0.2-0.2,0.4,0,0.6c0.2,0.2,0.4,0.2,0.6,0c0.1-0.1,0.1-0.2,0.1-0.3
		C12.4,5.6,12.4,5.5,12.3,5.4z"/>
	<path id="Path_895" d="M5.1,12.5h-2c-0.2,0-0.4,0.2-0.4,0.4c0,0.2,0.2,0.4,0.4,0.4h2c0.2,0,0.4-0.2,0.4-0.4
		C5.5,12.7,5.3,12.5,5.1,12.5z"/>
	<path id="Path_896" d="M1.7,12.6c-0.2-0.2-0.4-0.2-0.6,0c-0.2,0.2-0.2,0.4,0,0.6c0.1,0.1,0.2,0.1,0.3,0.1c0.2,0,0.4-0.2,0.4-0.4
		C1.9,12.8,1.8,12.7,1.7,12.6L1.7,12.6z"/>
	<path id="Path_897" d="M9.1,4.8L8.5,3.4C8.4,3.2,8.2,3.1,8,3.2C7.7,3.3,7.6,3.5,7.7,3.7l0,0l0.6,1.4c0.1,0.2,0.3,0.3,0.6,0.2
		C9.1,5.3,9.2,5,9.1,4.8L9.1,4.8z"/>
	<path id="Path_898" d="M4.2,9.2L2.8,8.7c-0.2-0.1-0.5,0-0.6,0.2c-0.1,0.2,0,0.5,0.2,0.6L3.9,10c0.2,0.1,0.5,0,0.6-0.2
		C4.5,9.6,4.4,9.3,4.2,9.2L4.2,9.2z"/>
	<path id="Path_899" d="M21,12.5h-2c-0.2,0-0.4,0.2-0.4,0.4c0,0.2,0.2,0.4,0.4,0.4h2c0.2,0,0.4-0.2,0.4-0.4
		C21.5,12.7,21.3,12.5,21,12.5z"/>
	<path id="Path_900" d="M22.9,12.6c-0.2-0.2-0.4-0.2-0.6,0c-0.2,0.2-0.2,0.4,0,0.6c0.2,0.2,0.4,0.2,0.6,0C23,13.2,23,13,23,12.9
		C23,12.8,23,12.7,22.9,12.6z"/>
	<path id="Path_901" d="M20.5,4.4c-0.2-0.2-0.4-0.2-0.6,0l-2.1,2.1c-0.2,0.2-0.2,0.4,0,0.6c0.2,0.2,0.4,0.2,0.6,0L20.5,5
		C20.7,4.9,20.7,4.6,20.5,4.4z"/>
	<path id="Path_902" d="M6.2,6.5L4.1,4.4c-0.2-0.2-0.4-0.2-0.6,0S3.3,4.9,3.5,5l2.1,2.1c0.2,0.2,0.4,0.2,0.6,0S6.4,6.7,6.2,6.5z"/>
	<path id="Path_903" d="M16,3.2c-0.2-0.1-0.5,0-0.6,0.2l-0.6,1.4c-0.1,0.2,0,0.5,0.2,0.6c0.2,0.1,0.5,0,0.6-0.2l0,0l0.6-1.4
		C16.4,3.5,16.3,3.3,16,3.2C16,3.2,16,3.2,16,3.2z"/>
	<path id="Path_904" d="M21.7,8.9c-0.1-0.2-0.3-0.3-0.6-0.2l-1.4,0.6c-0.2,0.1-0.3,0.3-0.2,0.6c0.1,0.2,0.3,0.3,0.6,0.2l1.4-0.6
		C21.7,9.4,21.8,9.1,21.7,8.9z"/>
	<path id="Path_905" d="M12,10c-0.7,0-1.3,0.6-1.3,1.3v2.1c0,0.7,0.6,1.3,1.3,1.3s1.3-0.6,1.3-1.3c0,0,0,0,0,0v-2.1
		C13.3,10.6,12.7,10,12,10z M12.4,13.3c0,0.2-0.2,0.4-0.4,0.4c-0.2,0-0.4-0.2-0.4-0.4v-2.1c0-0.2,0.2-0.4,0.4-0.4
		c0.2,0,0.4,0.2,0.4,0.4V13.3z"/>
	<path id="Path_906" d="M12,15.5c-0.7,0-1.3,0.6-1.3,1.3c0,0.7,0.6,1.3,1.3,1.3c0.7,0,1.3-0.6,1.3-1.3C13.3,16.1,12.7,15.5,12,15.5z
		 M12,17.2c-0.2,0-0.4-0.2-0.4-0.4c0-0.2,0.2-0.4,0.4-0.4c0.2,0,0.4,0.2,0.4,0.4C12.4,17,12.2,17.2,12,17.2L12,17.2z"/>
</g>
</svg>
