<?xml version="1.0" encoding="utf-8"?>
<!-- Generator: Adobe Illustrator 22.0.0, SVG Export Plug-In . SVG Version: 6.00 Build 0)  -->
<svg version="1.1" id="Group_10017" xmlns="http://www.w3.org/2000/svg" xmlns:xlink="http://www.w3.org/1999/xlink" x="0px"
	 y="0px" viewBox="0 0 24 24" enable-background="new 0 0 24 24" xml:space="preserve">
<g>
	<path id="Path_1108" fill="#57F676" d="M12,23L12,23C5.9,23,1,18.1,1,12c0,0,0,0,0,0l0,0C1,5.9,5.9,1,12,1c0,0,0,0,0,0l0,0
		c6.1,0,11,4.9,11,11l0,0C23,18.1,18.1,23,12,23z"/>
	<path id="Path_1109" fill="#FFFFFF" d="M18,11.7C17.9,8.5,15.3,6,12.1,6C9,6,6.3,8.4,6.2,11.6c0,0.1,0,0.2,0,0.3
		c0,1.1,0.3,2.1,0.8,3L6,18l3.3-1c0.9,0.5,1.9,0.7,2.9,0.7c3.3,0,5.9-2.6,5.9-5.9c0,0,0,0,0,0C18,11.8,18,11.7,18,11.7z M12.1,16.8
		c-1,0-1.9-0.3-2.7-0.8l-1.9,0.6l0.6-1.8c-0.6-0.8-0.9-1.9-0.9-2.9c0-0.2,0-0.3,0-0.5c0.3-2.5,2.4-4.5,5-4.5c2.6,0,4.7,2,5,4.6
		c0,0.1,0,0.3,0,0.4C17.1,14.6,14.8,16.8,12.1,16.8z"/>
	<path id="Path_1110" fill="#FFFFFF" d="M14.8,13c-0.1-0.1-0.9-0.4-1-0.5c-0.1,0-0.2-0.1-0.3,0.1c-0.1,0.1-0.4,0.5-0.5,0.6
		c-0.1,0.1-0.2,0.1-0.3,0c-0.4-0.2-0.8-0.4-1.2-0.7c-0.3-0.3-0.6-0.6-0.8-1c-0.1-0.1,0-0.2,0.1-0.3c0.1-0.1,0.1-0.2,0.2-0.3
		c0,0,0,0,0.1-0.1c0-0.1,0.1-0.1,0.1-0.2c0-0.1,0-0.2,0-0.3c0-0.1-0.3-0.8-0.4-1.1c-0.1-0.3-0.2-0.2-0.3-0.2c-0.1,0-0.2,0-0.3,0
		c-0.1,0-0.3,0.1-0.4,0.2c-0.3,0.3-0.5,0.7-0.5,1.2c0,0.2,0,0.3,0.1,0.5c0.1,0.4,0.3,0.7,0.5,1c0.6,0.9,1.5,1.7,2.5,2.2
		c1.5,0.6,1.5,0.4,1.7,0.4c0.4-0.1,0.8-0.3,1-0.7c0.1-0.2,0.1-0.5,0.1-0.7C15.1,13.1,15,13.1,14.8,13z"/>
</g>
</svg>
