<?xml version="1.0" encoding="utf-8"?>
<!-- Generator: Adobe Illustrator 22.0.0, SVG Export Plug-In . SVG Version: 6.00 Build 0)  -->
<svg version="1.1" id="Group_10019" xmlns="http://www.w3.org/2000/svg" xmlns:xlink="http://www.w3.org/1999/xlink" x="0px"
	 y="0px" viewBox="0 0 24 24" enable-background="new 0 0 24 24" xml:space="preserve">
<g>
	<path id="Path_1111" fill="#C3271A" d="M12,23L12,23C5.9,23,1,18.1,1,12l0,0C1,5.9,5.9,1,12,1l0,0c6.1,0,11,4.9,11,11l0,0
		C23,18.1,18.1,23,12,23z"/>
	<path id="Path_1112" fill="#FFFFFF" d="M20.4,7.7c-0.2-0.8-0.8-1.4-1.6-1.6C17.5,5.8,12,5.8,12,5.8s-5.5,0-6.9,0.4
		C4.4,6.4,3.8,7,3.6,7.7c-0.5,2.8-0.5,5.7,0,8.5c0.2,0.8,0.8,1.4,1.6,1.6c1.4,0.4,6.9,0.4,6.9,0.4s5.5,0,6.9-0.4
		c0.8-0.2,1.4-0.8,1.6-1.6C20.9,13.4,20.9,10.6,20.4,7.7z"/>
	<path id="Path_1113" fill="#C3271A" d="M10.2,14.6V9.4l4.6,2.6L10.2,14.6z"/>
</g>
</svg>
